<!-- Generated by IcoMoon.io -->
<svg version="1.1" xmlns="http://www.w3.org/2000/svg" width="117" height="32" viewBox="0 0 117 32">
<title>Otwarte Dane</title>
<path fill="#000" d="M51.954 5.22c3.119 0 4.986 2.344 4.986 5.36s-1.868 5.266-4.986 5.266-4.986-2.344-4.986-5.266 1.858-5.36 4.986-5.36zM51.954 13.969c2.008 0 2.801-1.699 2.801-3.39s-0.747-3.483-2.801-3.483-2.755 1.699-2.755 3.483 0.747 3.39 2.755 3.39z"></path>
<path fill="#000" d="M60.676 7.33h-2.997v-1.868h8.31v1.868h-3.044v8.264h-2.269z"></path>
<path fill="#000" d="M76.83 15.594h-2.222l-1.718-6.9-1.718 6.901h-2.26l-2.689-10.141h2.232l1.606 6.91 1.821-6.91h2.092l1.727 7.003 1.662-7.003h2.185z"></path>
<path fill="#000" d="M83.357 5.453h2.288l3.8 10.141h-2.316l-0.766-2.26h-3.8l-0.794 2.26h-2.26zM83.142 11.681h2.633l-1.279-3.735z"></path>
<path fill="#000" d="M90.332 5.453h5.472c0.050-0.003 0.109-0.005 0.168-0.005 1.547 0 2.801 1.254 2.801 2.801 0 0.002 0 0.004 0 0.005v-0c0.006 0.066 0.010 0.144 0.010 0.222 0 1.060-0.664 1.965-1.599 2.322l-0.017 0.006c1.093 0.299 1.41 1.335 1.475 2.372-0.005 0.084-0.007 0.183-0.007 0.282 0 0.766 0.161 1.494 0.45 2.152l-0.013-0.034h-2.232c-0.187-0.715-0.314-1.547-0.354-2.401l-0.001-0.027c-0.159-1.065-0.57-1.531-1.69-1.531h-2.232v3.978h-2.232zM92.564 10.047h2.446c1.008 0 1.531-0.42 1.531-1.447s-0.523-1.41-1.531-1.41h-2.446z"></path>
<path fill="#000" d="M102.844 7.33h-3.044v-1.868h8.32v1.868h-3.044v8.264h-2.232z"></path>
<path fill="#000" d="M109.287 5.453h7.591v1.868h-5.36v2.176h4.921v1.737h-4.921v2.493h5.472v1.868h-7.704z"></path>
<path fill="#000" d="M47.407 17.312h4.379c2.624 0 4.603 1.662 4.603 5.014 0 2.941-1.503 5.136-4.603 5.136h-4.379zM49.639 25.585h1.989c1.289 0 2.531-0.794 2.531-3.044 0-2.045-0.728-3.352-2.932-3.352h-1.587z"></path>
<path fill="#000" d="M60.676 17.312h2.288l3.8 10.15h-2.278l-0.766-2.26h-3.8l-0.794 2.26h-2.26zM60.47 23.54h2.624l-1.279-3.735z"></path>
<path fill="#000" d="M67.688 17.312h2.213l4.239 6.807v-6.807h2.092v10.15h-2.204l-4.221-6.798v6.798h-2.12z"></path>
<path fill="#000" d="M78.231 17.312h7.591v1.868h-5.36v2.176h4.912v1.709h-4.912v2.521h5.472v1.868h-7.704z"></path>
<path fill="#1b86ff" d="M40.301 3.558h4.743l-7.115 26.071h-4.743l7.115-26.071z"></path>
<path fill="#1b86ff" d="M16.005 0c-0.003 0-0.006 0-0.009 0-8.839 0-16.005 7.166-16.005 16.005s7.166 16.005 16.005 16.005c8.839 0 16.005-7.166 16.005-16.005v0c0-8.836-7.16-15.999-15.995-16.005h-0zM17.779 26.080h-9.478v-18.965h9.478c0.089-0.003 0.193-0.005 0.298-0.005 5.24 0 9.487 4.247 9.487 9.487s-4.247 9.487-9.487 9.487c-0.105 0-0.209-0.002-0.313-0.005l0.015 0z"></path>
</svg>
