<svg id="Warstwa_1" data-name="Warstwa 1" xmlns="http://www.w3.org/2000/svg" xmlns:xlink="http://www.w3.org/1999/xlink" viewBox="0 0 161.72 53.52"><defs><style>.cls-1{fill:#e8e8e8;}.cls-2{fill:#fff;}.cls-3{fill:#f2f2f2;}.cls-4{fill:url(#linear-gradient);}.cls-5{fill:#bababa;}.cls-6{fill:#bfbfbf;}.cls-7{fill:#c6c6c5;}.cls-12,.cls-8{fill:#d9d9d9;}.cls-9{fill:#e6e6e6;}.cls-10{fill:#a3a3a3;}.cls-11{fill:url(#linear-gradient-2);}.cls-12{stroke:#d9d9d9;stroke-width:0.05px;}.cls-13{fill:url(#linear-gradient-3);}.cls-14{fill:#fcc100;}.cls-15{fill:#da9d00;}</style><linearGradient id="linear-gradient" x1="32.09" y1="41.84" x2="37.67" y2="41.84" gradientUnits="userSpaceOnUse"><stop offset="0" stop-color="#fff"/><stop offset="0.99" stop-color="#d9d9d9"/></linearGradient><linearGradient id="linear-gradient-2" x1="45.75" y1="39.66" x2="54.13" y2="39.66" gradientUnits="userSpaceOnUse"><stop offset="0" stop-color="#fff"/><stop offset="1" stop-color="#bababa"/></linearGradient><linearGradient id="linear-gradient-3" x1="35.36" y1="41.76" x2="29.24" y2="37.24" xlink:href="#linear-gradient-2"/></defs><title>ministerstwo_cyfryzacji_poziom</title><path class="cls-1" d="M151.72,50.47a.79.79,0,0,0,1.09,0,1,1,0,0,0,0-1.3.81.81,0,0,0-1.09,0,.88.88,0,0,0-.21.65.89.89,0,0,0,.21.65m1.19,1.67h-1.3v8.57h1.3Zm-5.1-1.67a.7.7,0,0,0,.54.22.73.73,0,0,0,.54-.22,1,1,0,0,0,0-1.3.76.76,0,0,0-.54-.21.73.73,0,0,0-.54.21.84.84,0,0,0-.22.65.85.85,0,0,0,.22.65M149,62V52.14H147.7v10a1.52,1.52,0,0,1-.29,1,1.12,1.12,0,0,1-.89.33,4,4,0,0,1-1.07-.15v1a3.15,3.15,0,0,0,1.21.2c1.55,0,2.33-.85,2.33-2.53m-3.25-1.6V59.27a6,6,0,0,1-2.2.46,2.22,2.22,0,0,1-1.89-.85,4,4,0,0,1-.63-2.42q0-3.33,2.61-3.33a4,4,0,0,1,.9.12,6,6,0,0,1,.93.28l.4-1.1a4.1,4.1,0,0,0-1-.31,5.71,5.71,0,0,0-1.23-.13,3.73,3.73,0,0,0-2.95,1.17,4.86,4.86,0,0,0-1,3.32,4.73,4.73,0,0,0,1,3.24,3.66,3.66,0,0,0,2.88,1.14,4.82,4.82,0,0,0,2.17-.44m-13.27-1a1.31,1.31,0,0,1-.43-1.07,1.45,1.45,0,0,1,.68-1.32,4.58,4.58,0,0,1,2.23-.48l1.3-.06v.78a2.48,2.48,0,0,1-.69,1.86,2.65,2.65,0,0,1-1.9.66,1.73,1.73,0,0,1-1.19-.37m5.08,1.28V54.86a2.84,2.84,0,0,0-.74-2.18,3.28,3.28,0,0,0-2.27-.68,6,6,0,0,0-1.51.2,6.09,6.09,0,0,0-1.39.54l.4,1a5.63,5.63,0,0,1,2.42-.66,1.79,1.79,0,0,1,1.39.48,2.17,2.17,0,0,1,.43,1.49v.53l-1.45,0q-4.16.12-4.15,2.72a2.38,2.38,0,0,0,.72,1.86,2.86,2.86,0,0,0,2,.66,3.94,3.94,0,0,0,1.59-.28,3.74,3.74,0,0,0,1.28-1.09h.06l.26,1.21Zm-8.35-1h-4.72l4.61-6.55v-1h-5.81v1h4.39L123,59.82v.88h6.21Zm-11.84,1L116.88,62a2,2,0,0,1-1.91,1.5,4.75,4.75,0,0,1-1-.09v1a5.82,5.82,0,0,0,1.17.13,2.71,2.71,0,0,0,1.8-.61,4.81,4.81,0,0,0,1.27-2l3.68-9.75h-1.39q-1.79,5-2.12,5.94c-.21.64-.36,1.09-.42,1.36h-.07a17.23,17.23,0,0,0-.76-2.42l-1.88-4.88H113.9Zm-7-8.31a3.73,3.73,0,0,0-1.15,1.29h-.06L109,52.14H108V60.7h1.3V56.11A3.07,3.07,0,0,1,110,54a2.31,2.31,0,0,1,1.78-.84,4.31,4.31,0,0,1,.94.11l.18-1.2a5.34,5.34,0,0,0-1-.09,2.6,2.6,0,0,0-1.47.45m-4.1-.3h-2.18v-.55a2.78,2.78,0,0,1,.35-1.57,1.26,1.26,0,0,1,1.09-.49,4.34,4.34,0,0,1,1.28.24l.33-1a5.44,5.44,0,0,0-1.59-.28c-1.84,0-2.76,1-2.76,3.16v.48l-1.53.46v.59h1.53V60.7h1.3V53.15h2.18ZM95.74,60.75,95.27,62a2,2,0,0,1-1.91,1.5,4.61,4.61,0,0,1-1-.09v1a5.67,5.67,0,0,0,1.17.13,2.66,2.66,0,0,0,1.79-.61,4.73,4.73,0,0,0,1.28-2l3.68-9.75H98.93q-1.8,5-2.12,5.94c-.22.64-.36,1.09-.43,1.36h-.06A17.65,17.65,0,0,0,95.55,57l-1.87-4.88H92.29Zm-3.59-9.83.56-1.15a7.16,7.16,0,0,0-3.14-.65,5.76,5.76,0,0,0-2.93.72,4.77,4.77,0,0,0-1.91,2,6.9,6.9,0,0,0-.66,3.1,6.27,6.27,0,0,0,1.38,4.35,5,5,0,0,0,3.89,1.53,8.57,8.57,0,0,0,2.93-.44V59.25a10.09,10.09,0,0,1-2.73.43,3.75,3.75,0,0,1-3-1.22,5.18,5.18,0,0,1-1-3.47,5,5,0,0,1,1.09-3.43,3.7,3.7,0,0,1,3-1.25,6,6,0,0,1,2.59.61" transform="translate(-17.58 -19.25)"/><path class="cls-1" d="M173.42,34.92a2.29,2.29,0,0,1,1.92-.83,2.33,2.33,0,0,1,1.95.84,4,4,0,0,1,.66,2.49,4,4,0,0,1-.66,2.5,2.62,2.62,0,0,1-3.86,0,4.07,4.07,0,0,1-.66-2.5,4.06,4.06,0,0,1,.65-2.5m4.82-.74A3.62,3.62,0,0,0,175.38,33a3.7,3.7,0,0,0-2.9,1.16,4.72,4.72,0,0,0-1,3.27,5.39,5.39,0,0,0,.48,2.35,3.54,3.54,0,0,0,1.38,1.55,3.84,3.84,0,0,0,2,.54,3.68,3.68,0,0,0,2.91-1.18,4.72,4.72,0,0,0,1.06-3.26,4.75,4.75,0,0,0-1.06-3.24M168.06,41.7l2.37-8.56h-1.34c-1,3.81-1.54,5.92-1.63,6.31s-.15.68-.17.86h-.06a17.59,17.59,0,0,0-.6-2.25l-1.53-4.92h-1.41l-1.57,4.92c-.09.27-.2.65-.33,1.12a11.76,11.76,0,0,0-.27,1.15h-.07a18.7,18.7,0,0,0-.49-2.27q-.44-1.7-1.27-4.92h-1.35l2.33,8.56h1.5l1.62-5c.15-.5.34-1.2.55-2.11h.06c.27,1.09.45,1.78.55,2.09l1.57,5Zm-13-1.32a1.78,1.78,0,0,1-.36-1.19v-5h2.48v-1h-2.48v-2h-.75L153.38,33l-1.23.53v.63h1.23v5.09c0,1.75.83,2.62,2.48,2.62a4.08,4.08,0,0,0,.74-.07,2.47,2.47,0,0,0,.62-.16v-1a3,3,0,0,1-.5.11,4.91,4.91,0,0,1-.67,0,1.3,1.3,0,0,1-1-.41M150.34,38a5.69,5.69,0,0,0-2.06-1.11,12.24,12.24,0,0,1-1.5-.64,1.49,1.49,0,0,1-.56-.46.93.93,0,0,1-.18-.58.9.9,0,0,1,.47-.8,2.72,2.72,0,0,1,1.39-.29,6.3,6.3,0,0,1,2.34.53l.46-1.05A6.75,6.75,0,0,0,148,33a4,4,0,0,0-2.33.6,1.92,1.92,0,0,0-.85,1.65,2,2,0,0,0,.24,1,2.57,2.57,0,0,0,.75.76,8.94,8.94,0,0,0,1.7.77,7.33,7.33,0,0,1,1.69.84,1.08,1.08,0,0,1,.44.86,1.09,1.09,0,0,1-.55,1,3.16,3.16,0,0,1-1.56.32,5.61,5.61,0,0,1-1.37-.18,6.3,6.3,0,0,1-1.32-.49v1.2a5.44,5.44,0,0,0,2.66.54,4.22,4.22,0,0,0,2.5-.65,2.14,2.14,0,0,0,.89-1.84,2,2,0,0,0-.54-1.42M141,33.44a3.71,3.71,0,0,0-1.14,1.29h-.07l-.15-1.59h-1.07V41.7h1.3V37.11a3.08,3.08,0,0,1,.74-2.1,2.28,2.28,0,0,1,1.78-.84,4.17,4.17,0,0,1,.93.11l.18-1.2a5.23,5.23,0,0,0-1-.09,2.61,2.61,0,0,0-1.48.45m-6.5,1.28a2.85,2.85,0,0,1,.55,1.88h-4.48a3.15,3.15,0,0,1,.73-1.86,2.12,2.12,0,0,1,1.64-.67,1.92,1.92,0,0,1,1.56.65m.27,7a7,7,0,0,0,1.3-.42V40.15a6.8,6.8,0,0,1-2.73.58,2.65,2.65,0,0,1-2-.78,3.43,3.43,0,0,1-.76-2.29h5.9v-.82a4.05,4.05,0,0,0-.94-2.8A3.22,3.22,0,0,0,133,33a3.39,3.39,0,0,0-2.74,1.21,5,5,0,0,0-1,3.29,4.44,4.44,0,0,0,1.1,3.21,3.9,3.9,0,0,0,3,1.16,7,7,0,0,0,1.48-.13M126,40.38a1.78,1.78,0,0,1-.36-1.19v-5h2.48v-1h-2.48v-2h-.75L124.32,33l-1.23.53v.63h1.23v5.09c0,1.75.83,2.62,2.48,2.62a4.08,4.08,0,0,0,.74-.07,2.47,2.47,0,0,0,.62-.16v-1a3,3,0,0,1-.5.11,4.91,4.91,0,0,1-.67,0,1.3,1.3,0,0,1-1-.41M121.28,38a5.6,5.6,0,0,0-2.06-1.11,12.24,12.24,0,0,1-1.5-.64,1.49,1.49,0,0,1-.56-.46.93.93,0,0,1-.18-.58.9.9,0,0,1,.47-.8,2.72,2.72,0,0,1,1.39-.29,6.3,6.3,0,0,1,2.34.53l.46-1.05a6.75,6.75,0,0,0-2.71-.56,4,4,0,0,0-2.33.6,1.92,1.92,0,0,0-.85,1.65,2,2,0,0,0,.24,1,2.57,2.57,0,0,0,.75.76,9.25,9.25,0,0,0,1.7.77,7.33,7.33,0,0,1,1.69.84,1.12,1.12,0,0,1-.11,1.85,3.13,3.13,0,0,1-1.56.32,5.61,5.61,0,0,1-1.37-.18,6.3,6.3,0,0,1-1.32-.49v1.2a5.44,5.44,0,0,0,2.66.54,4.22,4.22,0,0,0,2.5-.65,2.14,2.14,0,0,0,.89-1.84,2,2,0,0,0-.54-1.42m-8.76-6.48a.7.7,0,0,0,.54.22.73.73,0,0,0,.54-.22,1,1,0,0,0,0-1.3.76.76,0,0,0-.54-.21.73.73,0,0,0-.54.21.84.84,0,0,0-.22.65.85.85,0,0,0,.22.65m1.18,1.67h-1.29V41.7h1.29Zm-3.83,8.56V36.12a3.18,3.18,0,0,0-.78-2.39,3.24,3.24,0,0,0-2.33-.74,3.64,3.64,0,0,0-1.6.34,2.75,2.75,0,0,0-1.12,1H104l-.21-1.17h-1.06V41.7H104V37.21a3.73,3.73,0,0,1,.62-2.4,2.49,2.49,0,0,1,2-.72,1.93,1.93,0,0,1,1.49.51,2.25,2.25,0,0,1,.48,1.57V41.7Zm-11-10.23a.72.72,0,0,0,.54.22.73.73,0,0,0,.54-.22,1,1,0,0,0,0-1.3.76.76,0,0,0-.54-.21.75.75,0,0,0-.54.21.84.84,0,0,0-.22.65.85.85,0,0,0,.22.65m1.19,1.67h-1.3V41.7h1.3ZM90.79,41.7,94.7,31.6h.06c-.07,1-.11,1.9-.11,2.75V41.7H96V30.28H94L90.35,39.7h-.07l-3.61-9.42h-2V41.7h1.22V34.44c0-1.11,0-2.06-.11-2.86h.07L89.72,41.7Z" transform="translate(-17.58 -19.25)"/><path class="cls-2" d="M62.76,45.51C61.44,44.86,60.27,44,59,43.33a.92.92,0,0,1-.31-.24,17,17,0,0,0,3.3,1,5.57,5.57,0,0,0,3.65-.43,8.41,8.41,0,0,0-4.2-3.5A5.94,5.94,0,0,0,64,40a1.64,1.64,0,0,0,1.28-1.57,5.8,5.8,0,0,1-3.25.2c1.39-.29,2.68-.72,3.25-1.82a7.45,7.45,0,0,0-3.22-1.32c.71-.35,1.8-.71,2.22-1.4a1.26,1.26,0,0,0-.1-1.26c-.23.15-.43.35-.67.51s-.51.3-.78.44a5.56,5.56,0,0,1-1.75.68,6.65,6.65,0,0,0,1.64-1.39,4.71,4.71,0,0,0,1.2-1.82,5.69,5.69,0,0,0-3-.2c.55-.61,1.51-1.95.69-2.92a7.82,7.82,0,0,1-2.16,2.13A7,7,0,0,0,61,26.61a6.69,6.69,0,0,0-3.16.85s0,0,0,0a4.62,4.62,0,0,0,1.22-2.86,14.27,14.27,0,0,0-9.29,4.34,11.36,11.36,0,0,0-2.68,4.14,4,4,0,0,0,0,2.85,2,2,0,0,0,2.11,1.24c.48,1.68-1.15,2.41-2.7,2.26a3,3,0,0,0-.41-1.94.71.71,0,0,0,.64-.51,1.25,1.25,0,0,1-1-.58c-.34-.73.2-1.75.1-2.6a.51.51,0,0,0,.53-.09c-.39-.35-.4-1.11-.35-1.84.13-1.54.64-3.76-.19-4.85a.52.52,0,0,0,.16-.56c.55,0,.42-.92.1-1.1-.11.41-1,.35-1.15.05a.86.86,0,0,0,.1-1.45,1.24,1.24,0,0,1-.69.76,25.06,25.06,0,0,1,.69-2.49,19,19,0,0,1,1-2.12c-.53.29-1.22.42-1.59.86-.33-.41-1-.1-1.1.24,0-.43-.16-.63-.54-.64a.44.44,0,0,0-.63-.6c0-.34-.28-.49-.46-.69a1.09,1.09,0,0,0-.34.8.38.38,0,0,0-.61.44c-.46,0-.56.46-.58.86a.65.65,0,0,0-1.1-.25c-.2-.59-1.09-.5-1.48-.9a20.08,20.08,0,0,1,1.61,4.17,1.1,1.1,0,0,0-.92,1.19c-.83,0-1.48.34-1.54,1.13A3.07,3.07,0,0,0,37.09,28a1.62,1.62,0,0,1,1.25-.5,1,1,0,0,1,.77.51c-.66.12-1.26.65-2,.64a1.35,1.35,0,0,1-.88-.41.8.8,0,0,0,.16.78c.77.77,2.49.07,3.4-.1,0,.09,0,.28,0,.34s.24,0,.37,0a1.91,1.91,0,0,1,1.55,2.2,3.42,3.42,0,0,1-1.83,2.06.66.66,0,0,0,.35.79,8,8,0,0,1-.95,1.2c-.26.26-.83.86-1.33.83-.24,0-.32-.18-.45-.32-.25.37-.18,1.2.22,1.36A3.27,3.27,0,0,0,37,39.4c-1.19-.23-2.75-.36-2.81-1.66a2.45,2.45,0,0,1,.1-.74,2,2,0,0,0,1.84-1,3.38,3.38,0,0,0,.48-2.06,7,7,0,0,0-1.73-3.76,15.85,15.85,0,0,0-2.73-2.76,13.6,13.6,0,0,0-7.87-3.09,6.68,6.68,0,0,0,2,3.19,6.68,6.68,0,0,0-4.14-.87,5,5,0,0,0,1.25,2.43,16.66,16.66,0,0,0,1.82,1.84c-.62-.38-1.27-.78-1.92-1.22A5.67,5.67,0,0,1,21.46,28a1.46,1.46,0,0,0-.16.9,2.74,2.74,0,0,0,1.19,1.86,6.21,6.21,0,0,0-1.88,0,3,3,0,0,0-1.6.42,6.76,6.76,0,0,0,1.71,1.86A7.68,7.68,0,0,0,23,34.4a7.42,7.42,0,0,1-2.36-.74,7.25,7.25,0,0,1-1.68-1c-.05,0-.11-.15-.2-.13a2.22,2.22,0,0,0,.46,1.66,3,3,0,0,0,1.2,1,5.52,5.52,0,0,0-2.79,1.13,6.91,6.91,0,0,0,1.92,1.5,7,7,0,0,0,2.55.87A10.87,10.87,0,0,1,18,38.29c0,1.93,2.17,1.83,4.05,1.85a14.3,14.3,0,0,0-2.47,1.51,4.8,4.8,0,0,0-1.82,2.15c1.75.69,4.15,0,5.72-.29-1.2.65-2.44,1.52-3.73,2.17a2.88,2.88,0,0,1-1.94.46,1.75,1.75,0,0,0,1.77,1.11,5.49,5.49,0,0,0,2.07-.67c.65-.31,1.26-.63,1.8-.94-1.47,2.13-3.11,4.09-3,7.79a4.85,4.85,0,0,0,2.17-1,17.5,17.5,0,0,0,4.59-4.81c-.7,1.42-1.32,3-2.07,4.39a7.27,7.27,0,0,1-3,3.48,2.7,2.7,0,0,0,2.78-.64,12.86,12.86,0,0,0,3-4.49,20.41,20.41,0,0,0-.48,4.79,5,5,0,0,0,.45,2.38A10.59,10.59,0,0,0,30.76,54a21.31,21.31,0,0,0,1.86-4.58,29.05,29.05,0,0,1-1.25,5.27.87.87,0,0,0,.62-.06,3.17,3.17,0,0,0,1.19-1.55,12.42,12.42,0,0,0,.7-2c.08.08.12.2.24.25a5.3,5.3,0,0,0,1.61-2.22A11.42,11.42,0,0,0,36.52,46a2.88,2.88,0,0,0,2.66-.41,3,3,0,0,1,.42,1.26,2,2,0,0,0-2.21-.26,2.78,2.78,0,0,0-1.24,1.76c-.11.45-.12.87-.23,1.25A4.49,4.49,0,0,1,34,52.22a.68.68,0,0,0,.5.11,4.76,4.76,0,0,1-.7,1s-.12,0-.08.1.21,0,.3.1a3,3,0,0,1-1.23,1.15,1.34,1.34,0,0,0,.51.24,3.18,3.18,0,0,1-1.3,1,3.76,3.76,0,0,0,2.22.59,3.42,3.42,0,0,1-1.53,1.43.77.77,0,0,0,.54.16,4.21,4.21,0,0,1-1.56,1.14.92.92,0,0,0,.44.13,2.36,2.36,0,0,1-1.53,1.05c.07.21.43.27.73.29-.28.48-.92.6-1.55.73.08.22.3.31.55.38-.81.91-2.24-.06-3.55.09-.38-.86-2.22-.71-2.3.32a.29.29,0,0,0-.42.34c-.47.47-.38,1.79.35,1.91,0-.6.38-.8.7-1.07a1.44,1.44,0,0,0,1.35-.3,5.73,5.73,0,0,1,1.17.27,1.47,1.47,0,0,0-.74.26c-.16.1-.41.4-.58.43s-.42-.1-.6-.1a.92.92,0,0,0-.6.25,2.43,2.43,0,0,0-.42.55,1.5,1.5,0,0,0,0,.84.31.31,0,0,0,.07.46,1.36,1.36,0,0,0,.74,1,2,2,0,0,0,1.08.29c-.06-.17-.23-.3-.31-.52s0-.52-.11-.78a1.2,1.2,0,0,0,.74-.93,10,10,0,0,0,1.31-.4c.09,0,.21-.16.3-.13s-.1.16-.15.2a2.08,2.08,0,0,0-.64.87.91.91,0,0,0-1,1.05,1.48,1.48,0,0,0,.37.69.44.44,0,0,0,.27.54,1.27,1.27,0,0,0,2,.43c-.3-.13-1.21-.88-.49-1.13A1.19,1.19,0,0,0,29,66a13.78,13.78,0,0,0,1.64-1.69,3.64,3.64,0,0,0,1.32,0c0,.16-.13.24-.15.4a.65.65,0,0,0,.46.73,1.82,1.82,0,0,1-.13.7c-.07.13-.23.17-.3.29.57.32,1.65.13,1.56-.67a.32.32,0,0,0,.25-.46.92.92,0,0,0,.5-1,1.13,1.13,0,0,0-1.2-1,2.66,2.66,0,0,1-.65.06c-.28-.05-.26-.48-.14-.7a3.75,3.75,0,0,1,.52-.64c.58-.69,1-1.23,1.6-2a28.28,28.28,0,0,1,1.94-2.2,1.64,1.64,0,0,1,.31-.28s.11.14.16.2a2.29,2.29,0,0,0,1.83.82,3,3,0,0,1-.41-1.45,1.35,1.35,0,0,0,.67.31,5.58,5.58,0,0,1,1.6-5.19,12.27,12.27,0,0,1-1.53,5.93,1.56,1.56,0,0,0,1.49-.74,3.47,3.47,0,0,1-.56,2.07,2.07,2.07,0,0,1-1.52,1.14,1.36,1.36,0,0,1-.79-.3,1.5,1.5,0,0,0,.41,1.88,1.94,1.94,0,0,0,2-.2,2.64,2.64,0,0,1-1.11,1.59,2.09,2.09,0,0,1-2.09.25c-.43-.31-.33-1.09-.1-1.55A1.81,1.81,0,0,0,34.48,64a2,2,0,0,0,.92,1.89,2.3,2.3,0,0,0-1.12,1.78,2,2,0,0,0,1.15,1.73,3.45,3.45,0,0,0,2.37.31A5.25,5.25,0,0,0,41,67.17a6.88,6.88,0,0,0-.1,3.19,6,6,0,0,0,1.18,2.4,9.2,9.2,0,0,0,1.1-2.43,6.08,6.08,0,0,0,0-3.14,7.33,7.33,0,0,0,1.51,1.68,3.53,3.53,0,0,0,2.32.88,2.63,2.63,0,0,0,2.14-1,2,2,0,0,0,.41-1.18,2.2,2.2,0,0,0-1.35-1.81,2.17,2.17,0,0,0,1-2.37,1.55,1.55,0,0,0-1.53-1.29,1.13,1.13,0,0,1,.14.46c.07.84-.63,1.22-1.33,1.26A2.41,2.41,0,0,1,44,61.83a1.74,1.74,0,0,0,2-.18,1.42,1.42,0,0,0,.14-1.71,1.25,1.25,0,0,1-1.38.36c-.77-.36-1.09-1.5-1.23-2.46a1.84,1.84,0,0,0,1.46.33A8.3,8.3,0,0,1,44.26,57a12.13,12.13,0,0,1-1-5,15.52,15.52,0,0,1,1.17,2.17A6.21,6.21,0,0,1,45,56.9c.43-.12.59-.5.79-.85a3.72,3.72,0,0,1-.07,1.18,2.7,2.7,0,0,1-.46.82A1.94,1.94,0,0,0,47.38,57c1.33,1.68,2.61,3.46,4.06,5,.18.19.57.46.56.74s-.23.34-.48.33a2.22,2.22,0,0,1-.39-.1,1,1,0,0,0-.86,1.68,1.15,1.15,0,0,0,0,.41,1.23,1.23,0,0,0,2,.59c-.38-.06-.54-.34-.65-.67a1.23,1.23,0,0,0,.1-.46c.22,0,.3-.21.42-.25A1.53,1.53,0,0,0,53.28,64c.49.46.94,1,1.43,1.41-.05.1,0,.18.07.25a1.13,1.13,0,0,0,.54,1.23c-.07.25.12.37.26.47a4.58,4.58,0,0,1-.67.57,1.34,1.34,0,0,0,1.69-.39c0-.07,0-.16,0-.22s.12-.07.15-.13,0-.12,0-.18.1-.21,0-.35A1,1,0,0,0,56.06,65c-.38-.44-.93-.8-1.32-1.18l1.37.46c.36.12,1.08.28,1.28.56a1.42,1.42,0,0,1,.1.29c.08.2.19.27.44.36a2.53,2.53,0,0,1-.15,1.14c.79.06,1.17-.53,1.29-1.17a.31.31,0,0,0,.14-.23c0-.12-.1-.24-.1-.28l.1-.11a.92.92,0,0,0,0-.92,1.39,1.39,0,0,0-1.86-.37,5.8,5.8,0,0,0-1.28-.69,2.73,2.73,0,0,1,1.36-.34,1,1,0,0,0,1.15,0c0,.23.38.3.61.2.28.13.38.45.54.7.56-.36.49-1.76-.19-1.92a.37.37,0,0,0-.4-.26c-.2-.72-1.59-.65-1.77,0a11.25,11.25,0,0,0-2.12.39,5.32,5.32,0,0,1-.63.22,1.1,1.1,0,0,1-.94-.5.57.57,0,0,0,.45-.41,1.5,1.5,0,0,1-1.28-.54c0-.08.08-.18.13-.28A2.16,2.16,0,0,1,51.75,59c.11-.08.22-.14.23-.31a2.09,2.09,0,0,1-1.28-.87.66.66,0,0,0,.33-.33,5.2,5.2,0,0,1-1.94-1.86,4.1,4.1,0,0,0,2.45-.26c.08,0,.18-.06.2-.13A2.59,2.59,0,0,1,50,54.07,1.12,1.12,0,0,0,50.4,54a2.92,2.92,0,0,1-1.13-1.18.58.58,0,0,0,.46-.18,1.65,1.65,0,0,1-.89-.87.8.8,0,0,0,.59-.09c-1-.47-1.37-1.66-1.79-2.89-.34-1-.75-2.63-2.15-2.55a4.25,4.25,0,0,0-1.41.48,4.4,4.4,0,0,1,.64-1.07,2.75,2.75,0,0,0,2.33,0c.25,2,.77,3.74,2,4.72a5.56,5.56,0,0,0,.62-.41,11.67,11.67,0,0,0,.51,2.1c.31.84.71,1.66,1.81,1.63a11.61,11.61,0,0,1-.72-4.78,23.19,23.19,0,0,0,1.07,4.71,7.25,7.25,0,0,0,2.21,3.59,7.93,7.93,0,0,0,.68-2.9,17.88,17.88,0,0,0,0-3.43,19.48,19.48,0,0,0,2.42,3.45A2,2,0,0,0,58.9,55c.63,0,.93-.4,1.45-.53-2.11-1.13-2.77-3.7-3.93-5.78a16.23,16.23,0,0,0,2.3,2.72,7.22,7.22,0,0,0,3.14,1.89,12,12,0,0,0-2.24-7.46,11.77,11.77,0,0,0,3,1.14c1.24.25,2.54,0,2.72-1.14A3.19,3.19,0,0,1,62.76,45.51ZM39.88,65.16a5.63,5.63,0,0,1-1.08,1.47,3.1,3.1,0,0,1-1.71.92c-.94.1-1.44-.51-1.22-1.46a4.19,4.19,0,0,0,4-.93v0h0Zm0,0s0,0,0,0Zm0,0v0S39.9,65.12,39.89,65.12Zm4-.31a4.45,4.45,0,0,0,4,1.07,1.11,1.11,0,0,1-1.3,1.38c-1.33-.1-2.31-1.5-2.72-2.44C43.84,64.79,43.86,64.79,43.86,64.81Z" transform="translate(-17.58 -19.25)"/><path class="cls-3" d="M42.21,25.66a2.61,2.61,0,0,0,1.22.26s-.36.12-2.27-.87c0,0-2.2-1.11-2,.46l.1,0s0-1,1.12-.58Z" transform="translate(-17.58 -19.25)"/><path class="cls-4" d="M32.09,42a17,17,0,0,0,5.58,1.17,13.83,13.83,0,0,1-.57-2.64,6.32,6.32,0,0,0,.19,1.65,3.74,3.74,0,0,1-.89,0,13.41,13.41,0,0,1-4-1.17" transform="translate(-17.58 -19.25)"/><path class="cls-5" d="M38.75,25.47l.37,0a.68.68,0,0,1,.81-.86,8.11,8.11,0,0,1,2.27.88,6.69,6.69,0,0,0-2.31-1A1,1,0,0,0,38.75,25.47Z" transform="translate(-17.58 -19.25)"/><path class="cls-5" d="M42.32,25s1.47.42,2.06.08a1.24,1.24,0,0,0,.44-.43c.15-.28.31-.33.31-.33s.41.81-.67,1A3.61,3.61,0,0,1,42.32,25Z" transform="translate(-17.58 -19.25)"/><path class="cls-5" d="M44.6,25.62s.6.25.33.53v.06s.7.44,1.2,0a.42.42,0,0,0,0-.59,1.33,1.33,0,0,1-.67.24,5,5,0,0,1-.87-.24" transform="translate(-17.58 -19.25)"/><path class="cls-6" d="M45,26.41s.72,1.05.37,1.26c0,0-.09.09-.3,0a5,5,0,0,1,.26,3.7C44.63,33.12,43,35,44.23,36.46a2.31,2.31,0,0,1,.72,2s.65-.56-.08-2.16a3.52,3.52,0,0,1,0-2s.36-1.58.37-1.75a3.59,3.59,0,0,0,.75,1,6.58,6.58,0,0,1-.08-1.6c.08-.72.43-3.27.05-4.24A2.11,2.11,0,0,0,45,26.41Z" transform="translate(-17.58 -19.25)"/><path class="cls-6" d="M45.3,33a3,3,0,0,0,.45.51s-.29,2.4-.23,2.61a1.17,1.17,0,0,0,.9.88,1,1,0,0,1-1.3-.5A6.41,6.41,0,0,1,45.3,33Z" transform="translate(-17.58 -19.25)"/><path class="cls-5" d="M45.4,37.21a7.3,7.3,0,0,1-.06.76,2.73,2.73,0,0,1,.56,1.4,3.68,3.68,0,0,0,.32,1.26,6.92,6.92,0,0,0-.67-3l0-.1s.39,0,.45,0A1.88,1.88,0,0,1,45.4,37.21Z" transform="translate(-17.58 -19.25)"/><path class="cls-5" d="M39.33,25.57l.25.08s0-.33.23-.39.3,0,.24.07a1.36,1.36,0,0,0-.15.2l.37.25s0-.36.09-.43,0-.1.41,0,1.91.72,1.91.72-.08.65-1,.55a1.29,1.29,0,0,0,1.78-.41s1,0,1.11-.25a7.77,7.77,0,0,1-1.49-.06,22.74,22.74,0,0,1-2.63-.85C39.59,24.74,39.33,25.22,39.33,25.57Z" transform="translate(-17.58 -19.25)"/><path class="cls-5" d="M40.51,25.33a.75.75,0,0,0,.42.94c.65.28.83.2.83.2l-.39-.2a.27.27,0,0,1-.27-.05c-.16-.12-.31-.33-.15-.77C41,25.45,40.67,25.36,40.51,25.33Z" transform="translate(-17.58 -19.25)"/><path class="cls-7" d="M36.73,28.74a3.34,3.34,0,0,0,1.48,0c.84-.21,1.32-.54,1.86-.64a2.36,2.36,0,0,1,1.86.34s.15.08.12.15,0,.13-.22.08a3.23,3.23,0,0,0-1.66-.16,6.91,6.91,0,0,0-.81.18A4.07,4.07,0,0,1,36.73,28.74Z" transform="translate(-17.58 -19.25)"/><path class="cls-8" d="M41.06,33.21a3.27,3.27,0,0,0,1.74-1.69s.08-.12.16,0,.19.15.25.11A2.75,2.75,0,0,1,41.06,33.21Z" transform="translate(-17.58 -19.25)"/><path class="cls-8" d="M40.33,33.59a2,2,0,0,0,2.08-.5S40.7,35.06,40.33,33.59Z" transform="translate(-17.58 -19.25)"/><path class="cls-8" d="M41.16,34.5a2.72,2.72,0,0,0,1-.62,6.26,6.26,0,0,1-2.9,3s-1.36.52-1.67-.56a1.39,1.39,0,0,0,1.58.1A5.64,5.64,0,0,0,41.16,34.5Z" transform="translate(-17.58 -19.25)"/><path class="cls-5" d="M38,37.31a2.67,2.67,0,0,0,1.53-.12,4.23,4.23,0,0,0,.87-.57,14,14,0,0,0,1.1-1.23l-.41,1a5.94,5.94,0,0,1-1.68.92,2.46,2.46,0,0,0-1,1,10.44,10.44,0,0,1-.58.91s.26-.59.34-.83a2.8,2.8,0,0,1,.57-.9A3.12,3.12,0,0,1,38,37.31Z" transform="translate(-17.58 -19.25)"/><path class="cls-5" d="M41.05,37.12v.63s-.41.1-.43,1,.15,1.18,0,1.71a6.26,6.26,0,0,0-.1-1,2.88,2.88,0,0,1-.1-1.42A2,2,0,0,1,41.05,37.12Z" transform="translate(-17.58 -19.25)"/><path class="cls-5" d="M39.36,37.85a4.53,4.53,0,0,0-.23,1.32,1.24,1.24,0,0,0,.23.56c.16.14.92.74,1,1.14a4.45,4.45,0,0,0-1.1-1.06s-.22-.2-.23-.32a1.22,1.22,0,0,1-.66.58,5.26,5.26,0,0,0-.88.48.63.63,0,0,1-.07-.29s-.17-.1-.34.12L37,40.32a.87.87,0,0,1,.57-.28c.41-.06,1.06-.15,1.28-.5a1.7,1.7,0,0,0,.21-.58A3.54,3.54,0,0,1,39.36,37.85Z" transform="translate(-17.58 -19.25)"/><path class="cls-6" d="M44.6,30.12a.21.21,0,0,0,.11-.14c0-.09.07-.22.1-.22a5.76,5.76,0,0,1-.2,1.87,6.46,6.46,0,0,1-.93,1.72,20.59,20.59,0,0,0-1.17,2.2c-.07.17-.61,1.77-.74,2,0,0,.42-1.7.62-2.23s1.1-2.12,1.19-2.3.78-1.49.85-1.7A3.94,3.94,0,0,0,44.6,30.12Z" transform="translate(-17.58 -19.25)"/><path class="cls-6" d="M43,35.66a4.26,4.26,0,0,0,.18,1.5s-.6.77-.76.94-.74.63-1.28.3a1.81,1.81,0,0,0,.58-.52C41.92,37.59,42.56,35.76,43,35.66Z" transform="translate(-17.58 -19.25)"/><path class="cls-8" d="M43.63,34.48s-.39,1.24-.13,1.74a2.84,2.84,0,0,0,.8.87s.43.47.4.53A2.2,2.2,0,0,1,43.61,37,1.86,1.86,0,0,1,43.63,34.48Z" transform="translate(-17.58 -19.25)"/><path class="cls-8" d="M44.05,27.52a2.81,2.81,0,0,1,1.33,2.19,5.66,5.66,0,0,1-.84,3,16.36,16.36,0,0,1-1.15,1.57A14,14,0,0,0,45,30.79,5.64,5.64,0,0,0,44.05,27.52Z" transform="translate(-17.58 -19.25)"/><path class="cls-5" d="M43.46,37.52s.67.38.73.4a2.08,2.08,0,0,1,.45.3l.11.2-.08-.22-.2-.2-.94-.54s-.25-.21-.29-.2A1.5,1.5,0,0,0,43,38.41a4.43,4.43,0,0,1,.52,1.47,4,4,0,0,1-.07.84,2.64,2.64,0,0,0,.19-1.31C43.49,38.87,43.06,38.07,43.46,37.52Z" transform="translate(-17.58 -19.25)"/><path class="cls-5" d="M44.78,38.56a3.8,3.8,0,0,0,.27.73,2.12,2.12,0,0,1-.89,1.18c-.72.48-.83.72-.83.72s-.09-.25.64-.79A2.44,2.44,0,0,0,44.78,38.56Z" transform="translate(-17.58 -19.25)"/><path class="cls-8" d="M39.61,25.84A2.84,2.84,0,0,1,40.83,27a3.26,3.26,0,0,0-.45-.06A2.73,2.73,0,0,0,39.61,25.84Z" transform="translate(-17.58 -19.25)"/><path class="cls-5" d="M41.71,38.59h.07a1.26,1.26,0,0,0,.37.81c.33.23,1.12,1,1.12,1.5a1.59,1.59,0,0,0-.54-.78c-.42-.33-.72-.61-.72-.61a2.22,2.22,0,0,1-.71.91,2.21,2.21,0,0,0-.78.68s0-.3.6-.73A2.12,2.12,0,0,0,41.71,38.59Z" transform="translate(-17.58 -19.25)"/><path class="cls-9" d="M43.11,27.38a3.08,3.08,0,0,1,1.25,1.81A4.58,4.58,0,0,1,44,31.54c-.33.85-1.56,3.2-1.56,3.2a15,15,0,0,0-1.12,2.9v0c-.15,1-.12-1.34,1.15-3.51s1.61-3.27,1.49-4.1A6.61,6.61,0,0,0,43.11,27.38Z" transform="translate(-17.58 -19.25)"/><path class="cls-5" d="M38.33,44.24a8.76,8.76,0,0,1-.52-.89.54.54,0,0,1,.19-.3c.1-.07,0,.25.2.28a1,1,0,0,1,.18-.41c.14-.16,1-.83.88-1.37l-.32-.26a1.28,1.28,0,0,1-.39,1.09c-.5.41-.83.72-.82.85A3,3,0,0,0,38.33,44.24Z" transform="translate(-17.58 -19.25)"/><path class="cls-5" d="M39.4,41.64a2.38,2.38,0,0,0,2.49-.35l.29.25A2.86,2.86,0,0,1,39.4,41.64Z" transform="translate(-17.58 -19.25)"/><path class="cls-5" d="M42.22,41.55a2.17,2.17,0,0,0,2.3-.3l.13.32a2.69,2.69,0,0,1-2.47,0Z" transform="translate(-17.58 -19.25)"/><path class="cls-5" d="M45.11,39.63s.89,1.11.65,1.72-.59.32-.77.06A1.78,1.78,0,0,1,44.87,40a1.47,1.47,0,0,0,.2,1.68c.7.91.57,1.18.57,1.18A4.18,4.18,0,0,0,46.11,41,3.18,3.18,0,0,0,45.11,39.63Z" transform="translate(-17.58 -19.25)"/><path class="cls-5" d="M39,42.87a1.73,1.73,0,0,0,1.51-.5l.24.24A2.43,2.43,0,0,1,39,42.87Z" transform="translate(-17.58 -19.25)"/><path class="cls-5" d="M40.77,42.65a2.54,2.54,0,0,0,2.49-.1l.26.16a2.9,2.9,0,0,1-2.8,0Z" transform="translate(-17.58 -19.25)"/><path class="cls-5" d="M43.57,42.74a1.93,1.93,0,0,0,1.77-.29.62.62,0,0,1,.13.25,2.38,2.38,0,0,1-1.95.08Z" transform="translate(-17.58 -19.25)"/><path class="cls-5" d="M39.12,43.59a1.17,1.17,0,0,1-.55.58s-.19.18-.13.27.24.33.24.33a.69.69,0,0,1,.15-.43C39,44.1,39.29,43.94,39.12,43.59Z" transform="translate(-17.58 -19.25)"/><path class="cls-5" d="M41.93,43.61s-.87,1-2.77,0l0,.08a3.49,3.49,0,0,0,1.8.53,2,2,0,0,0,1.21-.44S42,43.69,41.93,43.61Z" transform="translate(-17.58 -19.25)"/><path class="cls-5" d="M44.65,43.33a1,1,0,0,0,.12.23,3.15,3.15,0,0,1-2.56.25l0,0A2.53,2.53,0,0,0,44.65,43.33Z" transform="translate(-17.58 -19.25)"/><path class="cls-5" d="M45.5,42.77a2.18,2.18,0,0,1,0,.86,5.55,5.55,0,0,0-.07.57s-.64-.27-.69-.58a.57.57,0,0,1,.27-.28c.18-.06.41-.5.41-.57S45.5,42.77,45.5,42.77Z" transform="translate(-17.58 -19.25)"/><path class="cls-5" d="M44.78,44a1.5,1.5,0,0,0,1.17.72,1.88,1.88,0,0,0,1.33-.75l.08.61a2.11,2.11,0,0,1-2.22.34,4.27,4.27,0,0,0-.1.75s-.83-.21-1-.81a.45.45,0,0,0,.29-.17C44.41,44.52,44.51,44,44.78,44Z" transform="translate(-17.58 -19.25)"/><path class="cls-5" d="M44.61,45.64s-.45-.32-.52-.4-.35.28-.29.48a1.05,1.05,0,0,0,.35.65Z" transform="translate(-17.58 -19.25)"/><path class="cls-5" d="M43.68,44.56l.17.33a4.08,4.08,0,0,1-3.83,0v-.07a3.16,3.16,0,0,0,1.84.45A4.23,4.23,0,0,0,43.68,44.56Z" transform="translate(-17.58 -19.25)"/><path class="cls-5" d="M39.82,44.65l.17.18a1.89,1.89,0,0,1-.68.87l-.22-.3A1.54,1.54,0,0,0,39.82,44.65Z" transform="translate(-17.58 -19.25)"/><path class="cls-5" d="M39.58,46.49A3.37,3.37,0,0,0,40,46a1.19,1.19,0,0,0,.25.22h0c.07,0-.23.12-.31.26s-.29.39-.34.39Z" transform="translate(-17.58 -19.25)"/><path class="cls-5" d="M40.35,46.22a1.26,1.26,0,0,0,.95.08c.62-.14.73-.37.73-.37l.22.2A1.91,1.91,0,0,1,40.35,46.22Z" transform="translate(-17.58 -19.25)"/><path class="cls-5" d="M43.76,46.1l.19.24a2,2,0,0,1-1.38-.12A1.59,1.59,0,0,0,43.76,46.1Z" transform="translate(-17.58 -19.25)"/><path class="cls-5" d="M43.32,46.84l.22.25a9.11,9.11,0,0,0-.45,1.79c-.07.78-.5,3.28-.5,3.28a23,23,0,0,0,0-2.76,8.41,8.41,0,0,1,0-1.53.39.39,0,0,0-.3-.43c-.17-.06-.42,0-.54-.18A2.56,2.56,0,0,0,43.32,46.84Z" transform="translate(-17.58 -19.25)"/><path class="cls-5" d="M43.76,47.21l0,0a10.43,10.43,0,0,0-.41,2.19c0,1-.16,2-.16,2a13,13,0,0,1-.57,3.11A4.22,4.22,0,0,1,42,55.6l0-.83s.69-.27,1-2.24c0,0,.33-2.76.34-2.91A9.91,9.91,0,0,1,43.76,47.21Z" transform="translate(-17.58 -19.25)"/><path class="cls-8" d="M40.57,46.93a1.36,1.36,0,0,0,.53.28s-.34,0-.32.16a8.52,8.52,0,0,1,.29,2.2c0,1.23.12,2.46.13,2.62a6.22,6.22,0,0,0,.34,1.4c.12.13-.29.1-.49-1.51s-.12-2.36-.24-2.95a5.68,5.68,0,0,0-.59-1.94Z" transform="translate(-17.58 -19.25)"/><path class="cls-5" d="M39.77,47.56s.59,3.26.6,4.35A11.58,11.58,0,0,0,38.91,54a7,7,0,0,0-.4,3s-1-.22-1-1.78a4.42,4.42,0,0,1,.1-1.25,1.16,1.16,0,0,0,1.15-.4,7.93,7.93,0,0,0,1.07-1.66,4.43,4.43,0,0,0,.25-1.8C40,49.88,39.77,47.56,39.77,47.56Z" transform="translate(-17.58 -19.25)"/><path class="cls-5" d="M40.64,51.92a7.09,7.09,0,0,0,.87,2.9,7.19,7.19,0,0,1-.51,1.3s.07-.35-.11-.37-1.25,1.9-1.8,2.26a10.55,10.55,0,0,0,1.36-2.12,6.09,6.09,0,0,0,.27-2C40.69,53.1,40.64,51.92,40.64,51.92Z" transform="translate(-17.58 -19.25)"/><path class="cls-5" d="M42.32,55.26s-.27,3.5-.25,4.36L42,55.67A3.89,3.89,0,0,0,42.32,55.26Z" transform="translate(-17.58 -19.25)"/><path class="cls-5" d="M42.78,56.44a5.61,5.61,0,0,0,.75,1.36l-.05,0s-.17-.19-.22,0a16.15,16.15,0,0,1-1.15,4l0-.77a3.14,3.14,0,0,1-.71-1.64,5.81,5.81,0,0,0,.69,1.47,10.09,10.09,0,0,0,.76-2.21A6.53,6.53,0,0,0,42.78,56.44Z" transform="translate(-17.58 -19.25)"/><path class="cls-5" d="M42.74,60.41l.26.36a13.67,13.67,0,0,1,.38,3.58,5.82,5.82,0,0,1-1.25,3.74v-.63a8.32,8.32,0,0,1-.9-4,11.78,11.78,0,0,0,.9,3.81,4.27,4.27,0,0,0,.84-2,12,12,0,0,0-.32-4.7Z" transform="translate(-17.58 -19.25)"/><path class="cls-5" d="M42.74,60.41l.26.36a13.67,13.67,0,0,1,.38,3.58,5.82,5.82,0,0,1-1.25,3.74v-.63a8.32,8.32,0,0,1-.9-4,11.78,11.78,0,0,0,.9,3.81,4.27,4.27,0,0,0,.84-2,12,12,0,0,0-.32-4.7Z" transform="translate(-17.58 -19.25)"/><path class="cls-8" d="M41.77,61.37l.3.52.24-.4-.16,4.74L42,63.76S41.78,61.72,41.77,61.37Z" transform="translate(-17.58 -19.25)"/><path class="cls-8" d="M41.77,67.82s.19.33.32.36.39-.46.39-.46l-.41,3.12Z" transform="translate(-17.58 -19.25)"/><path class="cls-8" d="M43.26,52A14.45,14.45,0,0,1,43,54.11s.25,3.7,1.83,3.77h0a7,7,0,0,1-1.07-2.27A12.82,12.82,0,0,1,43.26,52Z" transform="translate(-17.58 -19.25)"/><path class="cls-8" d="M43,59.84a2.09,2.09,0,0,0,.31.89,3,3,0,0,0,1.06.81,1.47,1.47,0,0,1-.92-.6,3.1,3.1,0,0,1-.56-.83Z" transform="translate(-17.58 -19.25)"/><path class="cls-8" d="M43.45,58.18A5.61,5.61,0,0,0,44,59.75c.31.43.86,1.18,1.54,1.19,0,0-1.05.47-2-1.1l-.36-.55S43.32,58.08,43.45,58.18Z" transform="translate(-17.58 -19.25)"/><path class="cls-8" d="M40.9,56.52s0,1.81.1,2.18.3,1.32.34,1.47a1.8,1.8,0,0,1-1.29.88s1-.59,1-1.35v-.34l-.33.63a2,2,0,0,1-1.59,1.1,1.86,1.86,0,0,0,1.34-1,6.94,6.94,0,0,0,.45-1.4l-.09-1s-.16,2-1.22,2.38a3.18,3.18,0,0,0,.84-1.55C40.6,57.71,40.9,56.52,40.9,56.52Z" transform="translate(-17.58 -19.25)"/><path class="cls-5" d="M41.39,60.35l.1.25a4.42,4.42,0,0,1-1.6,1.26c-.8.26-2,.35-2.28-1.07a1.48,1.48,0,0,0,1.93,1A4.34,4.34,0,0,0,41.39,60.35Z" transform="translate(-17.58 -19.25)"/><path class="cls-8" d="M41.25,61.54a11.53,11.53,0,0,0-.4,1.87,4.42,4.42,0,0,1-.86,1s.65-.66.55-.94c0,0-.11,0-.38.34s-1.64,1.41-2.54,1.23a3.29,3.29,0,0,0,2.27-1.31A9.4,9.4,0,0,0,41.25,61.54Z" transform="translate(-17.58 -19.25)"/><path class="cls-8" d="M36.32,62.42a1.54,1.54,0,0,0-.39,2s-.6-.26-.26-1.29c0,0,.06-.32-.28,0s-.75,1.57.65,2.6a1.77,1.77,0,0,1-1.13-1.33A1.64,1.64,0,0,1,36.32,62.42Z" transform="translate(-17.58 -19.25)"/><path class="cls-5" d="M40.84,63.51s0,.57,0,.64a6.48,6.48,0,0,1-2.4,1.67,3.52,3.52,0,0,1-1.78.06,4,4,0,0,0,2.74-.72A7.51,7.51,0,0,0,40.84,63.51Z" transform="translate(-17.58 -19.25)"/><path class="cls-8" d="M40.85,64.48s.15,1.21.18,1.35a7.78,7.78,0,0,1-1.87,2.45s1.54-1.58,1.66-2.4c0,0-1.44,2.55-3.42,2.64a4.43,4.43,0,0,0,2.87-2.21A6,6,0,0,0,40.85,64.48Z" transform="translate(-17.58 -19.25)"/><path class="cls-8" d="M35.6,66.05a1.7,1.7,0,0,0,1.27,2.47,1.55,1.55,0,0,1-1-.2c-.47-.3-.77.24-.19.65a1.56,1.56,0,0,1-1-1.47A1.65,1.65,0,0,1,35.6,66.05Z" transform="translate(-17.58 -19.25)"/><path class="cls-5" d="M41.08,66l.17.51a8,8,0,0,1-2.33,2.69,3.87,3.87,0,0,1-2.75.44s1.34.16.93-.1a2.26,2.26,0,0,0-.42-.12,7.74,7.74,0,0,0,.92-.08,4.17,4.17,0,0,0,1.85-.92A8.17,8.17,0,0,0,41.08,66Z" transform="translate(-17.58 -19.25)"/><path class="cls-8" d="M43.09,60.88a2.77,2.77,0,0,0,.84.91,2.83,2.83,0,0,0,1.2,2.36,2.48,2.48,0,0,0,2.4.48,2.41,2.41,0,0,1-2.7-.45A5.23,5.23,0,0,1,43.09,60.88Z" transform="translate(-17.58 -19.25)"/><path class="cls-8" d="M48,62.23s2.18,1.44-.47,3A1.8,1.8,0,0,0,48,62.23Z" transform="translate(-17.58 -19.25)"/><path class="cls-5" d="M48.74,62.66A1.94,1.94,0,0,1,48,65.43a2.38,2.38,0,0,1-1.69.25,2.09,2.09,0,0,0,2.06-.29A1.91,1.91,0,0,0,48.74,62.66Z" transform="translate(-17.58 -19.25)"/><path class="cls-5" d="M43.44,63.45a3.65,3.65,0,0,0,1.91,1.7,6,6,0,0,0,1.37.27,3.52,3.52,0,0,1-2.32-.67,5.68,5.68,0,0,1-1-1Z" transform="translate(-17.58 -19.25)"/><path class="cls-8" d="M43.41,64.86a6.56,6.56,0,0,0,2.44,3.35,6,6,0,0,1-2.46-3Z" transform="translate(-17.58 -19.25)"/><path class="cls-5" d="M48.33,66.09S49,67.25,48.27,68a1.79,1.79,0,0,1-1.65.52s1.32.29,1.91-.52A1.45,1.45,0,0,0,48.33,66.09Z" transform="translate(-17.58 -19.25)"/><path class="cls-5" d="M49.12,66.68a1.91,1.91,0,0,1-1.24,2.5,3,3,0,0,1-2,0l-.52-.07a2.74,2.74,0,0,0,2.26.39C49.08,69.2,49.82,67.6,49.12,66.68Z" transform="translate(-17.58 -19.25)"/><path class="cls-5" d="M34.53,52.33s1.95-.21,2.42-1.4c0,0,1.36.13,2.74-1.87a5,5,0,0,1-2.86,2.39,4.64,4.64,0,0,1-2.53,1.27Z" transform="translate(-17.58 -19.25)"/><path class="cls-5" d="M34.05,53.52a3.39,3.39,0,0,0,2.84-1.35,3.14,3.14,0,0,0,2.24-1,3.21,3.21,0,0,1-2.44,1.32,4.5,4.5,0,0,1-2.89,1.35Z" transform="translate(-17.58 -19.25)"/><path class="cls-5" d="M36.74,53.46a2.92,2.92,0,0,0,2.1-.84,2.86,2.86,0,0,1-2.22,1.18,3.79,3.79,0,0,1-3.57,1.44l.28-.33A3.27,3.27,0,0,0,36.74,53.46Z" transform="translate(-17.58 -19.25)"/><path class="cls-8" d="M36.6,54.53s.14.56.92-.5c0,0-1.07,2,.36,3,0,0-1.11.2-.26,1C37.62,58,35.6,57.27,36.6,54.53Z" transform="translate(-17.58 -19.25)"/><path class="cls-5" d="M36.33,55a3.21,3.21,0,0,1-2.74,1s.76.19,0,.26A2.6,2.6,0,0,0,36.33,55Z" transform="translate(-17.58 -19.25)"/><path class="cls-8" d="M34.79,56.72l.07.9-.39.15A2.32,2.32,0,0,0,34.79,56.72Z" transform="translate(-17.58 -19.25)"/><path class="cls-5" d="M36.07,55.57a2.88,2.88,0,0,0,.3,1.66l-1.12.48L35,57.62a6.7,6.7,0,0,0,1-1.89Z" transform="translate(-17.58 -19.25)"/><path class="cls-8" d="M35.41,57.77l-.29-.06s-1.71,2.16-2.19,2.66S31,62.42,31.73,63a1.36,1.36,0,0,1,.11-.94,15.49,15.49,0,0,1,1.39-1.81C33.68,59.73,35.33,58,35.41,57.77Z" transform="translate(-17.58 -19.25)"/><path class="cls-5" d="M31.06,62.53s-.11.45,0,.5.34.1.34.17-.2,0-.42.29-.32.47-.54.47a4.17,4.17,0,0,1-.8,1c-.39.29-.83.76-.84,1s.4,1-.58,1.44a.87.87,0,0,1-1.11-.49s1.1.24.88-1.19a1.5,1.5,0,0,1,.63.13,4.53,4.53,0,0,1,.74-1.13A14.12,14.12,0,0,0,31.06,62.53Z" transform="translate(-17.58 -19.25)"/><path class="cls-8" d="M33,65.44a.74.74,0,0,0,.35-.08c.11-.08.23-.06.21.07S33.44,65.81,33,65.44Z" transform="translate(-17.58 -19.25)"/><path class="cls-5" d="M32.77,65.28a.66.66,0,0,0,.09-1,.89.89,0,0,0-.43-.26c-.26-.07-.45-.25-.06-.43a1.06,1.06,0,0,1,1.61.76C34.15,65.4,32.77,65.28,32.77,65.28Z" transform="translate(-17.58 -19.25)"/><path class="cls-8" d="M30.52,62.53A5.39,5.39,0,0,1,26.82,65a1.06,1.06,0,0,1-1.63.7s-.92-.62.53-.79c0,0,.55,0,.65-.38a3.72,3.72,0,0,0,1.73-.17,4.47,4.47,0,0,0,1.47-1C29.84,63.15,30.46,62.54,30.52,62.53Z" transform="translate(-17.58 -19.25)"/><path class="cls-8" d="M25,65.88a.93.93,0,0,0,.67.19,1.34,1.34,0,0,1-.76,0S25,65.94,25,65.88Z" transform="translate(-17.58 -19.25)"/><path class="cls-8" d="M26.32,61.71s-.3.63-.69.72-.92-.06-.77.36a.81.81,0,0,0,.94.57,1.26,1.26,0,0,0,.53-.34,1.4,1.4,0,0,1,.85-.43,1.16,1.16,0,0,1-.36.24c-.23.1,0,.25.09.27a1.54,1.54,0,0,0,1.18.07c.54-.24,1.19-.74,1.33-.76a8.55,8.55,0,0,1-1.33-.1,12.14,12.14,0,0,0-1.23-.25c-.25,0-.18-.05-.24-.1S26.44,61.65,26.32,61.71Z" transform="translate(-17.58 -19.25)"/><path class="cls-8" d="M24.55,62.56a1.23,1.23,0,0,0,.52.77,2.14,2.14,0,0,1-.65-.33s-.07,0,.07,0S24.47,62.53,24.55,62.56Z" transform="translate(-17.58 -19.25)"/><path class="cls-5" d="M33.26,58.1a3.86,3.86,0,0,0,1.47-.33,5.12,5.12,0,0,1-1.9.76A5.66,5.66,0,0,0,33.26,58.1Z" transform="translate(-17.58 -19.25)"/><path class="cls-5" d="M32.14,59.37a4.13,4.13,0,0,0,1.54-.25,2.87,2.87,0,0,1-1.83.62A3.14,3.14,0,0,0,32.14,59.37Z" transform="translate(-17.58 -19.25)"/><path class="cls-5" d="M31.34,60.71a4,4,0,0,0,1.35-.31,2.57,2.57,0,0,1-1.62.6A1.61,1.61,0,0,0,31.34,60.71Z" transform="translate(-17.58 -19.25)"/><path class="cls-5" d="M29.79,61.44a5,5,0,0,0,1.91.12,2.79,2.79,0,0,1-1.36.26A.7.7,0,0,1,29.79,61.44Z" transform="translate(-17.58 -19.25)"/><path class="cls-5" d="M45.42,49.91a3.2,3.2,0,0,0,1.84.81,2.93,2.93,0,0,0,1.58,1l.2.32a3.5,3.5,0,0,1-1.66-1S45.75,50.7,45.42,49.91Z" transform="translate(-17.58 -19.25)"/><path class="cls-5" d="M45.28,51a2.83,2.83,0,0,0,1.67.7,3.34,3.34,0,0,0,1.57,1l.75.13.18.34a5.54,5.54,0,0,1-2.23-1.09A4,4,0,0,1,45.28,51Z" transform="translate(-17.58 -19.25)"/><path class="cls-5" d="M45.6,52.4s1.12.69,1.69.53a1.88,1.88,0,0,0,.88.8,4.19,4.19,0,0,0,1.84.35l.24.34A6,6,0,0,1,48.56,54a13.18,13.18,0,0,1-1.2-.66A11.21,11.21,0,0,1,45.6,52.4Z" transform="translate(-17.58 -19.25)"/><path class="cls-5" d="M51.76,55.26s-.74.74-2.67.39c0,0,.88-.06.32-.24A4.22,4.22,0,0,1,48,54.88a4.56,4.56,0,0,0,1.86.45c1,0,1.3-.25,1.3-.25A3.92,3.92,0,0,0,51.76,55.26Z" transform="translate(-17.58 -19.25)"/><path class="cls-5" d="M45.82,56a5.8,5.8,0,0,0,.61-1.91,3.37,3.37,0,0,1-.58,2.61Z" transform="translate(-17.58 -19.25)"/><path class="cls-5" d="M47.17,54.45A3.14,3.14,0,0,0,49,55.65a1.49,1.49,0,0,1,.15,1.15l-1.31-1.51a3.91,3.91,0,0,1-.73,1.9c-.6.66-1.1.92-1.63.82A2,2,0,0,0,47,57.06,2.77,2.77,0,0,0,47.17,54.45Z" transform="translate(-17.58 -19.25)"/><path class="cls-5" d="M47.67,56.36a2.07,2.07,0,0,0,1.35.52.62.62,0,0,1-.59.12,2.39,2.39,0,0,0,2.6.51s-.31,1-2.14,0a2.3,2.3,0,0,0,1.06,1,2.67,2.67,0,0,0,1.83.13l.21.07s0,.29-.26.31a3.43,3.43,0,0,1-2.13-.57s1.47,2.16,3.18,1.65l.19.07-.13.28a3.4,3.4,0,0,1-2.2-.79,4.3,4.3,0,0,0,1.59,1.44A2,2,0,0,0,53.8,61h.31s-.06.56-1,.42-1.18-.35-1.18-.35a3.91,3.91,0,0,1,.62,1.16A7.79,7.79,0,0,0,51.65,61l-1.4-1.63s-1.43-1.73-1.61-1.92l-1-1Z" transform="translate(-17.58 -19.25)"/><path class="cls-8" d="M55.58,61.82a3.85,3.85,0,0,1,1.05-.17,1.7,1.7,0,0,0,.8-.29c.24-.23.21-.57,1-.53a.86.86,0,0,1,.66.49s.28,0,.37.18a1.55,1.55,0,0,0-.13.55c0,.33-.07.75-.46.63,0,0,.11-.25-.07-.18s-.18,0-.17-.14a.63.63,0,0,1-.74.23.33.33,0,0,0,.08-.18s.52-.09.47-.53a.49.49,0,0,0-.66-.39c-.17.07-.39.47-.61.47S55.88,61.8,55.58,61.82Z" transform="translate(-17.58 -19.25)"/><path class="cls-8" d="M57.56,64.86a.93.93,0,0,0,.91.38c.67,0,.63-.26.58-.29s.53-.57,0-1.09a1.33,1.33,0,0,0-1.73-.25s0,.06-.18-.07a8.88,8.88,0,0,0-1.93-.84s1.75.65,1.84,1-.57,0-.57,0A7.79,7.79,0,0,0,55,63.06a12.44,12.44,0,0,1,1.9,1s.3.23.41.17.69-.52.85,0S57.71,65,57.56,64.86Z" transform="translate(-17.58 -19.25)"/><path class="cls-8" d="M54.94,64a.3.3,0,0,0,.07.14c.06.07.64.48.55,1,0,0,.27-.34.35.08,0,0,.89.73-.23,1.46,0,0,.32.11.27.34s-.31.21-.31.21.11.17.44.09.57-.12.58-.06a.21.21,0,0,0,.12-.24.27.27,0,0,0,0-.35,1.33,1.33,0,0,0,.14-1.08C56.72,65.09,56,65,56,65Z" transform="translate(-17.58 -19.25)"/><path class="cls-8" d="M50.91,65.08a1.61,1.61,0,0,0,.25-.09,1.39,1.39,0,0,1,.34-.08s.12-.38-.07-.28A3.08,3.08,0,0,0,50.91,65.08Z" transform="translate(-17.58 -19.25)"/><path class="cls-8" d="M51.91,64a1,1,0,0,0,1.49-1s-.2,1.06-1.55.6c0,0-1.05-.43-1.14.31,0,0,0,.14.18.28s-.1.51-.35.46C50.54,64.61,51.66,64.92,51.91,64Z" transform="translate(-17.58 -19.25)"/><path class="cls-10" d="M47.43,44.52s1,.41.69-.08v-.08s.7.22,1.61-.78a1.44,1.44,0,0,1,.05.38,1.42,1.42,0,0,1-.73.65,6.8,6.8,0,0,0,.66,2.31,6.39,6.39,0,0,0,1,1.36,3.34,3.34,0,0,1-1-1.14,7.1,7.1,0,0,1-.84-2.45l-.3.06a4.65,4.65,0,0,0,.2,1L49,49.12l-.73-4.36a2.33,2.33,0,0,1-.82-.21Z" transform="translate(-17.58 -19.25)"/><path class="cls-5" d="M49.09,50.36l0-.65s.76-.23,1-1.54L51,49l.28-.22a32.37,32.37,0,0,0,.3,3.6,6.29,6.29,0,0,0,.45,1.31s-1.2-.27-1.39-2.88l-.21-2.09S50,50,49.09,50.36Z" transform="translate(-17.58 -19.25)"/><polygon class="cls-8" points="32.46 24.96 33.06 25.03 33.28 28.22 32.46 24.96"/><path class="cls-10" d="M51,48.27l0,.55a4.3,4.3,0,0,0,1.24-3.42l2,9.59-1.46-9.56a5.44,5.44,0,0,1-1.14-1.55L51.6,44S52.53,46.49,51,48.27Z" transform="translate(-17.58 -19.25)"/><path class="cls-10" d="M53.79,46.17l.74.31s1.83,7.19.06,10.72l-.08-.83s-2-1-2.91-8.13l0-.1s.82,6.62,2.79,8c0,0,1.35-3.08-.21-9.66A1.24,1.24,0,0,0,53.79,46.17Z" transform="translate(-17.58 -19.25)"/><path class="cls-8" d="M54.64,46.51l1,.26s.5,1.42.58,1.57.72,1.32,1,1.88c0,0,1.12,3.1,3.17,4.29,0,0-1.4.55-2.84-1.81S55,48.11,55,48.11Z" transform="translate(-17.58 -19.25)"/><path class="cls-10" d="M54.35,28.94a4.74,4.74,0,0,0-2.8,2.12,3.7,3.7,0,0,1,.82.11L54.44,29l-1.71,2.29a2.69,2.69,0,0,1,.76.79,2.16,2.16,0,0,1,1.75.46,1.67,1.67,0,0,1,.42,2,2,2,0,0,1,.65,1.85c-.25,1.09-.84,1.3-.84,1.3a3,3,0,0,1,.16,1.92,1.74,1.74,0,0,1-.89,1S54.58,42,54,42.47a2.77,2.77,0,0,1-1.62.54,2.07,2.07,0,0,1-2.54,1.05l0-.12s.86.36.87.09c0,0,0-.14-.44-.15,0,0-.33,0-.42-.19a1.72,1.72,0,0,0,2.26-1.07,2.23,2.23,0,0,0,1.82-.72,1.92,1.92,0,0,0,.41-1.53,1.56,1.56,0,0,0,1-1.21,2.6,2.6,0,0,0-.35-1.6,1.66,1.66,0,0,0,.94-1.79,1.6,1.6,0,0,0-.71-1.14A1.5,1.5,0,0,0,55,32.92a2.08,2.08,0,0,0-1.83-.46,1.57,1.57,0,0,0-1.52-1.05s.68-.13.27-.27a2.27,2.27,0,0,0-.73,0l.24-.16A5,5,0,0,1,54.35,28.94Z" transform="translate(-17.58 -19.25)"/><path class="cls-10" d="M54.35,28.94a4.74,4.74,0,0,0-2.8,2.12,3.7,3.7,0,0,1,.82.11L54.44,29l-1.71,2.29a2.69,2.69,0,0,1,.76.79,2.16,2.16,0,0,1,1.75.46,1.67,1.67,0,0,1,.42,2,2,2,0,0,1,.65,1.85c-.25,1.09-.84,1.3-.84,1.3a3,3,0,0,1,.16,1.92,1.74,1.74,0,0,1-.89,1S54.58,42,54,42.47a2.77,2.77,0,0,1-1.62.54,2.07,2.07,0,0,1-2.54,1.05l0-.12s.86.36.87.09c0,0,0-.14-.44-.15,0,0-.33,0-.42-.19a1.72,1.72,0,0,0,2.26-1.07,2.23,2.23,0,0,0,1.82-.72,1.92,1.92,0,0,0,.41-1.53,1.56,1.56,0,0,0,1-1.21,2.6,2.6,0,0,0-.35-1.6,1.66,1.66,0,0,0,.94-1.79,1.6,1.6,0,0,0-.71-1.14A1.5,1.5,0,0,0,55,32.92a2.08,2.08,0,0,0-1.83-.46,1.57,1.57,0,0,0-1.52-1.05s.68-.13.27-.27a2.27,2.27,0,0,0-.73,0l.24-.16A5,5,0,0,1,54.35,28.94Z" transform="translate(-17.58 -19.25)"/><path class="cls-10" d="M54.82,28.57a3.81,3.81,0,0,1-.15,2.37,8.06,8.06,0,0,1,1.67-.57,5.31,5.31,0,0,0-2.77,1.69l0,0a3.76,3.76,0,0,0,1-3.07Z" transform="translate(-17.58 -19.25)"/><polygon class="cls-8" points="34.99 23.81 37.39 26.55 35.49 23.73 34.99 23.81"/><path class="cls-10" d="M54.3,42.2A4,4,0,0,0,57,43.75,3.58,3.58,0,0,1,56,43.59l5,7.92-5.58-8.08a7,7,0,0,1,.32,3.19l-.45-.57a4.81,4.81,0,0,0-1-3.75Z" transform="translate(-17.58 -19.25)"/><path class="cls-10" d="M57.69,43.79a3.41,3.41,0,0,0,.52,0s1.54,2.28,2,3.11a12.35,12.35,0,0,1,1.58,4.23,7.37,7.37,0,0,1,.07,2.23l-.35-.66s-2,0-5.44-5.3c0,0,3.36,5,5.38,5.12C61.45,52.47,62.23,49.94,57.69,43.79Z" transform="translate(-17.58 -19.25)"/><path class="cls-10" d="M55.42,32.65l-.27-.22,2.36-2a4.43,4.43,0,0,1-1.73,3.93,2.22,2.22,0,0,0,.07-.45,4.08,4.08,0,0,0,1.23-3Z" transform="translate(-17.58 -19.25)"/><path class="cls-10" d="M58.78,43.48l-.52-.38s0-1.79-2.6-3.4l0-.11s3.25.5,4.18-1.14c0,0,4,.2,4.93-1.58h.49s-.55,1.32-3.28,1.77l-1.73.06A3.68,3.68,0,0,1,57.48,40l7.15,3.34-7.34-2.86A4.89,4.89,0,0,1,58.78,43.48Z" transform="translate(-17.58 -19.25)"/><path class="cls-10" d="M58.78,43.48l-.52-.38s0-1.79-2.6-3.4l0-.11s3.25.5,4.18-1.14c0,0,4,.18,4.91-1.6h.54s-.54,1.36-3.27,1.8l-1.77.06A3.68,3.68,0,0,1,57.48,40l7.15,3.34-7.34-2.86A4.89,4.89,0,0,1,58.78,43.48Z" transform="translate(-17.58 -19.25)"/><path class="cls-10" d="M57.65,36.53a9,9,0,0,1,1.9,1.12l-.45-.41s4.37-.36,5.21-.37l-5.87,0Z" transform="translate(-17.58 -19.25)"/><path class="cls-8" d="M52.85,29.24s1.36-.74,1.59-.82,3.78-3,3.78-3l-3.36,3.14A10.74,10.74,0,0,0,52.85,29.24Z" transform="translate(-17.58 -19.25)"/><polygon class="cls-10" points="39.29 11.07 39.96 11.1 42.67 8.01 39.29 11.07"/><path class="cls-10" d="M59.71,33.65l-.37.21S59,35.6,56.26,36.65l0,.18,1.27-.36s2.15-1.4,2.3-2.86l3-1.88-3.39,1.71a9.85,9.85,0,0,0-2.86.39S59,33.28,59.71,33.65Z" transform="translate(-17.58 -19.25)"/><path class="cls-8" d="M59.07,24.58l-.46.41a5,5,0,0,1-1.89,3.18l-1.78,1.42v.24a19,19,0,0,0,2.88-2.35A4.7,4.7,0,0,0,59.07,24.58Z" transform="translate(-17.58 -19.25)"/><path class="cls-8" d="M61,26.62l-.57.48a4.28,4.28,0,0,1-.8,2.37,11.81,11.81,0,0,1-2.11,2.07l-.06.34A7.2,7.2,0,0,0,61,26.62Z" transform="translate(-17.58 -19.25)"/><path class="cls-8" d="M61.63,28.32s.84.88-.83,2.77a12.51,12.51,0,0,0-4,2.24l.12-.2,2.77-2S61.6,29.94,61.63,28.32Z" transform="translate(-17.58 -19.25)"/><path class="cls-8" d="M63.24,31.53l.61-.27A6,6,0,0,1,61,34.46a10.42,10.42,0,0,1-1.81.49l.06-.1A6.57,6.57,0,0,0,63.24,31.53Z" transform="translate(-17.58 -19.25)"/><path class="cls-8" d="M64.36,33.17s.85,1.24-2.27,2.33a25,25,0,0,0-3.2,0l1.57-.13S63.77,34.54,64.36,33.17Z" transform="translate(-17.58 -19.25)"/><path class="cls-9" d="M58.4,25s-5.75,1.27-7.06,5.36a4.23,4.23,0,0,0-.73,1.13A1.8,1.8,0,0,0,50,33.31a1.66,1.66,0,0,0-1,1.58,1.2,1.2,0,0,0,1.43,1.17l.29.07s-2.72.67-2.53-2C48.32,33.23,50,27,58.4,25Z" transform="translate(-17.58 -19.25)"/><path class="cls-9" d="M49.31,37.12a2,2,0,0,0,1.39-.89h.06s-.21,1,0,1.35a2.4,2.4,0,0,0,1.41-.39s1.37,3.13-6,4a15.22,15.22,0,0,0,.38-1.72h.24a2.78,2.78,0,0,0,3-.87S50.65,37.73,49.31,37.12Z" transform="translate(-17.58 -19.25)"/><path class="cls-8" d="M51.28,35.11a4.19,4.19,0,0,0-.53,1s-1.22-.19-1.38-1.11.73-1.46,1.11-1.58a1.48,1.48,0,0,1,1-1.92,1.5,1.5,0,0,1,1.72,1l-.24.42a2.43,2.43,0,0,0-1.49-.79A2.35,2.35,0,0,0,51.16,34a1.81,1.81,0,0,0-1.33.33,2,2,0,0,0,1,1.08A1.92,1.92,0,0,1,51.28,35.11Z" transform="translate(-17.58 -19.25)"/><path class="cls-8" d="M53,33l.24.39a2.1,2.1,0,0,1,1.34-.1,1.42,1.42,0,0,1-.36,1.31,3.2,3.2,0,0,1,1.26,1.86,2.1,2.1,0,0,1-1.23.18,2.54,2.54,0,0,0,1,0c.51-.12.46.51-.16.85,0,0,.94-.29.81-1.74a1.59,1.59,0,0,0-.67-1.08A1.57,1.57,0,0,0,55.08,33a2,2,0,0,0-1.87-.51Z" transform="translate(-17.58 -19.25)"/><path class="cls-10" d="M53.46,34.26a5.24,5.24,0,0,0-.72.87l2.58,1.27S55.42,35.43,53.46,34.26Z" transform="translate(-17.58 -19.25)"/><path class="cls-10" d="M52.67,35.16l.25,1.07a2.51,2.51,0,0,1-2,1.25Z" transform="translate(-17.58 -19.25)"/><path class="cls-10" d="M53.42,34.23a3.69,3.69,0,0,0-.72.84s-.8-2.12-1.18-2.78a2.34,2.34,0,0,0,.06,2.49,2.54,2.54,0,0,1-.09-2.53S52.93,32.28,53.42,34.23Z" transform="translate(-17.58 -19.25)"/><path class="cls-10" d="M54.43,33.35l-.94.86.57.35a1.28,1.28,0,0,0,.4-1.21,1.57,1.57,0,0,0-1.19.07A2,2,0,0,1,54.43,33.35Z" transform="translate(-17.58 -19.25)"/><path class="cls-10" d="M51.24,34.14a4.59,4.59,0,0,0,.39.78L50,34.38A1.83,1.83,0,0,1,51.24,34.14Z" transform="translate(-17.58 -19.25)"/><path class="cls-11" d="M53,36.28a4.25,4.25,0,0,0,1,.29s2,5.59-8.22,6.48L46,42.2S54.84,42,53,36.28Z" transform="translate(-17.58 -19.25)"/><path class="cls-5" d="M65.07,43.48l.6.22s-1.83,1.64-6.92-.59c0,0-.13-.57-.16-.62S63.07,44.84,65.07,43.48Z" transform="translate(-17.58 -19.25)"/><path class="cls-12" d="M58.25,43.74l.1.15s3.23,2,3.66,2.16,2.2,1,3.26-.16a2.2,2.2,0,0,1-1.78-.09,14.24,14.24,0,0,1-2.07-1c-1.08-.67-2.66-1.6-2.66-1.6l.06.4Z" transform="translate(-17.58 -19.25)"/><path class="cls-10" d="M33.35,48.24a7.08,7.08,0,0,0,.53,2.81s-1,4.08-2.5,3.63A3.06,3.06,0,0,0,32.64,53a14.49,14.49,0,0,0,.59-4.64Z" transform="translate(-17.58 -19.25)"/><path class="cls-8" d="M32,43.93s-.72,2.35,0,3.75c0,0-.91-1.3-.08-3.81Z" transform="translate(-17.58 -19.25)"/><path class="cls-10" d="M28.49,55.84l2.73-8.79a4.78,4.78,0,0,0,1.05,1.87s-1.84,6.32-4,7.69l.14-.44s-1-2.26.86-9.2c0,0-2.09,6.17-1.06,9.76l-.29.83s3.12-1.84,4.92-8.89l-.48.17a4.13,4.13,0,0,1-1-3.93l-.2.32Z" transform="translate(-17.58 -19.25)"/><path class="cls-8" d="M29.41,42.05a5.4,5.4,0,0,0-.67,4.38l0,.06A5.16,5.16,0,0,1,29.41,42.05Z" transform="translate(-17.58 -19.25)"/><path class="cls-9" d="M28.42,47.06l.6-.19a35.31,35.31,0,0,1-1.28,3.9c-.48.95-2.51,5.45-5.25,4.87a6.47,6.47,0,0,0,3.82-3.78l.6-1.3c.1-.21.89-2.09.89-2.09Z" transform="translate(-17.58 -19.25)"/><path class="cls-10" d="M28,39.57a18.15,18.15,0,0,0-2.07.86L19.1,43.31c-.16.07,6.54-2.31,6.54-2.31s.44-.75,2.36-1.37Z" transform="translate(-17.58 -19.25)"/><path class="cls-9" d="M30.63,31.41s-.33-1.47-.07-1.67A22,22,0,0,1,32,31.87s-.76.37-1.17-.19l.44.65a1.7,1.7,0,0,1,.8-.1,1.67,1.67,0,0,1,.63-.09,7.05,7.05,0,0,1-.45-.55,14.6,14.6,0,0,0-1.57-1.9s.8-.27,2.08,1a4.89,4.89,0,0,1,1.09,2,4.13,4.13,0,0,0-3.45-3.37A3.26,3.26,0,0,0,30.63,31.41Z" transform="translate(-17.58 -19.25)"/><path class="cls-9" d="M29.72,26.72S26.66,24.79,25,24.78c0,0,.11,1.23,2.06,2.88,0,0-1.62-1.51-1.41-2.39C25.66,25.27,26.49,24.93,29.72,26.72Z" transform="translate(-17.58 -19.25)"/><path class="cls-9" d="M22.28,26.68l.57.31s-.07,1.44,1.91,2.83A6.55,6.55,0,0,0,27.43,31a3.17,3.17,0,0,0-1,.14L24.86,30,23.4,28.69h-.18A5.44,5.44,0,0,1,22.28,26.68Z" transform="translate(-17.58 -19.25)"/><path class="cls-9" d="M26.37,31.45a3.44,3.44,0,0,0,.27,1s-5.14-2.05-5.2-3.9a4.19,4.19,0,0,0,1.3,1.54C23.66,30.73,25.89,31.86,26.37,31.45Z" transform="translate(-17.58 -19.25)"/><path class="cls-9" d="M23.19,31.4s-2.42-.28-2.93.16l-.46-.17s.38,1.14,3.28,2.45c0,0,1.47.48,2.22-.08l.1.05a11.72,11.72,0,0,0-1.16.65s-3.72-1.31-4.54-3.07A6,6,0,0,1,23.19,31.4Z" transform="translate(-17.58 -19.25)"/><path class="cls-9" d="M24.21,34.66a1.42,1.42,0,0,0,.32.51A13,13,0,0,0,22.06,35s-2.62-.82-3.06-1.89A6.06,6.06,0,0,0,24.21,34.66Z" transform="translate(-17.58 -19.25)"/><path class="cls-9" d="M21,35.47s-2,.32-2.42.94l-.2,0s.13.84,3.5,1.75a3.4,3.4,0,0,0,2.76-.42l0,.05a4.67,4.67,0,0,0-.71.61,7.92,7.92,0,0,1-2.48-.28,6.4,6.4,0,0,1-3.26-1.71A5.14,5.14,0,0,1,21,35.47Z" transform="translate(-17.58 -19.25)"/><path class="cls-10" d="M18.81,36.48s4,.37,4.78.42a27.5,27.5,0,0,0,3.1,0,4.08,4.08,0,0,0-1.61.49s-1.92-.3-2.61-.39" transform="translate(-17.58 -19.25)"/><path class="cls-9" d="M18.15,38.48a3.48,3.48,0,0,0,2.2.61c1.42,0,3.1-.23,3.33-.13l.38.31s-1.85.17-2.64.17S18.77,39.58,18.15,38.48Z" transform="translate(-17.58 -19.25)"/><path class="cls-9" d="M22.19,40.44s-3.27,1.77-3.32,2.92l-.24.1s.17.4,2.51,0l.14.1-.36,0a5.45,5.45,0,0,1-2.56,0S18.88,42.08,22.19,40.44Z" transform="translate(-17.58 -19.25)"/><path class="cls-5" d="M25,42.28a5.78,5.78,0,0,0-.13.69,23.56,23.56,0,0,1-2.81.77s-.23.07-.33-.09c0,0-.08-.12-.4-.09l-.13-.08A13.18,13.18,0,0,0,25,42.28Z" transform="translate(-17.58 -19.25)"/><path class="cls-10" d="M28.78,42.43a4.19,4.19,0,0,0-.42,1l-7.22,9.25s1.65.16,4.9-4.07a23.1,23.1,0,0,0,2.07-3.39s0-.58.1-.87a11.37,11.37,0,0,0,0,1.65s-3.89,6.93-7.8,7.44l3.81-5.12,4.1-5.62Z" transform="translate(-17.58 -19.25)"/><path class="cls-10" d="M33.35,48.24a7.08,7.08,0,0,0,.53,2.81s-1,4.08-2.5,3.63A3.06,3.06,0,0,0,32.64,53a14.49,14.49,0,0,0,.59-4.64Z" transform="translate(-17.58 -19.25)"/><path class="cls-10" d="M28.49,55.84l2.73-8.79a4.78,4.78,0,0,0,1.05,1.87s-1.84,6.32-4,7.69l.14-.44s-1-2.26.86-9.2c0,0-2.09,6.17-1.06,9.76l-.29.83s3.12-1.84,4.92-8.89l-.48.17a4.13,4.13,0,0,1-1-3.93l-.2.32Z" transform="translate(-17.58 -19.25)"/><path class="cls-9" d="M28.42,47.06l.6-.19a35.31,35.31,0,0,1-1.28,3.9c-.48.95-2.51,5.45-5.25,4.87a6.47,6.47,0,0,0,3.82-3.78l.6-1.3c.1-.21.89-2.09.89-2.09Z" transform="translate(-17.58 -19.25)"/><path class="cls-10" d="M28.78,42.43a4.19,4.19,0,0,0-.42,1l-7.22,9.25s1.65.16,4.9-4.07a23.1,23.1,0,0,0,2.07-3.39s0-.58.1-.87a11.37,11.37,0,0,0,0,1.65s-3.89,6.93-7.8,7.44l3.81-5.12,4.1-5.62Z" transform="translate(-17.58 -19.25)"/><path class="cls-9" d="M26,43.46a41.38,41.38,0,0,0-3.6,4.72,8.26,8.26,0,0,0-1.34,4.41l-.16.22a8.9,8.9,0,0,1,.24-2.06C21.37,50,22.36,47.1,26,43.46Z" transform="translate(-17.58 -19.25)"/><path class="cls-9" d="M25.67,43.22l-2.25,2.39a17.08,17.08,0,0,1-3.05,1.47,2,2,0,0,1-2.43-.69,3.82,3.82,0,0,0,1.95,0,9.91,9.91,0,0,0,1.81-.72s2.11-1.34,2.55-1.68a14.48,14.48,0,0,1,1.26-.82Z" transform="translate(-17.58 -19.25)"/><path class="cls-10" d="M34.83,44.88a1.51,1.51,0,0,0,.51.75l-1,4.47.49-4.19a6.41,6.41,0,0,1-1.14,2,9.18,9.18,0,0,0,.52,2.8s1.71-1.22,1.9-4.44c0,0,.05-.19-.19-.3a4.14,4.14,0,0,1-.39-.25,4.48,4.48,0,0,0,1,.34s-.34,3.77-2.4,5.28l0-.59s-.48-.53-.56-2.74a4,4,0,0,1-1.22.82l.09-.46s1.71-.66,2.18-3.51a3.21,3.21,0,0,1-1.17,0l-1,3.34L33,44.69a5.77,5.77,0,0,1-1.14-1l0-.05,0,.05a1.34,1.34,0,0,0,.17-.4.1.1,0,0,0,0-.06h0l.08.13a2.2,2.2,0,0,0,2.67.91.8.8,0,0,1,0,.35l.09,0a.34.34,0,0,0,0-.26v-.06s.29.85,1.94.62c0,0,.16-.06.19.08a1.2,1.2,0,0,1,0,.25h.06V45l0,0v0a1.32,1.32,0,0,0,1.7-.1l.31.47-.09-.06a2,2,0,0,1-1.95,0A2.74,2.74,0,0,1,34.83,44.88Z" transform="translate(-17.58 -19.25)"/><path class="cls-10" d="M29.66,42a1.78,1.78,0,0,0,.3.53s.17.21.31.43.27.22.31.19a2.09,2.09,0,0,0,.18-.27,1.42,1.42,0,0,0,1.27.38v0l-.26.58a11.6,11.6,0,0,1-.88,1.68A4.65,4.65,0,0,1,28.45,47l.3-.56A2.21,2.21,0,0,0,29.9,46a4.81,4.81,0,0,0,1.71-2.33,5.75,5.75,0,0,1-1.07-.46L28.94,46l1.11-2.92a.41.41,0,0,0,0-.4A2.13,2.13,0,0,1,29.66,42Z" transform="translate(-17.58 -19.25)"/><path class="cls-10" d="M27.89,39.73a3.81,3.81,0,0,0-2.5,3,4.6,4.6,0,0,0,3.95-1,4.87,4.87,0,0,1-.82-.67l-2.94,1.53s2.61-1.76,2.7-2l.38-.18a3.29,3.29,0,0,0,1.15,1.05S27.58,43.84,24.93,43l.37-.21A3.65,3.65,0,0,1,27.89,39.73Z" transform="translate(-17.58 -19.25)"/><path class="cls-10" d="M25.74,37.46s-1.47.72-1.61,1.42l3.4-.59.39.58v.05l-.23-.25-3.56.27a6.19,6.19,0,0,0,3.09.86,7.85,7.85,0,0,0-.88.39A5.26,5.26,0,0,1,24,39.33h.1s1,.6,1.13.43-.4-.24-.63-.36a3,3,0,0,1-.71-.47A3.37,3.37,0,0,1,25.74,37.46Z" transform="translate(-17.58 -19.25)"/><path class="cls-10" d="M28.08,34a4.91,4.91,0,0,0-3.27.62s.87.28,1.63.44l1.93.39s-.34.24-.37.33L24.8,34.7a3.27,3.27,0,0,0,1.94,1.91s.56.23.68.06.26-.44.36-.49-.29.3-.35.78c0,0-.6-.21-.77-.29a3.82,3.82,0,0,1-2-2S25.62,33.66,28.08,34Z" transform="translate(-17.58 -19.25)"/><path class="cls-10" d="M30.73,32.37a7.3,7.3,0,0,0-3.83-.87s.08,2.1,1.73,2c0,0-.28.43-.47.32a3.09,3.09,0,0,1-1.41-2.37A5.9,5.9,0,0,1,30.73,32.37Z" transform="translate(-17.58 -19.25)"/><path class="cls-10" d="M27.11,31.62s2.32,1.22,3,1.46l-.08.21a2.44,2.44,0,0,0-.8-.13Z" transform="translate(-17.58 -19.25)"/><path class="cls-10" d="M25.75,25.32l3,2.3a12.83,12.83,0,0,0,2.67,1.64l-1.06-.35s-.29-.09-.32.32c0,0-.05.29-.07.38a1.38,1.38,0,0,0-.12-.72c-.17-.22-1.1-1-1.1-1Z" transform="translate(-17.58 -19.25)"/><path class="cls-10" d="M30.17,31.19a3.8,3.8,0,0,0,.21.55l0,.05A11.18,11.18,0,0,0,28.15,31L22.9,27s.81-.31,3.09.63c0,0-2.34-.84-2.84-.51L29,31a9.67,9.67,0,0,0,1.27.65A2.15,2.15,0,0,1,30.17,31.19Z" transform="translate(-17.58 -19.25)"/><path class="cls-10" d="M20.51,31.66l6.65,1.95L27,33.37l.31.32a5.6,5.6,0,0,0-1.45,0S21,31.77,20.51,31.66Z" transform="translate(-17.58 -19.25)"/><path class="cls-10" d="M32.07,32.26a1.35,1.35,0,0,1,.71,0,1.57,1.57,0,0,1,.84,1.6l-.35.24A1.57,1.57,0,0,0,32.07,32.26Z" transform="translate(-17.58 -19.25)"/><path class="cls-10" d="M33.63,33.85s1.08.32,1,1.22a1.11,1.11,0,0,1-1.35,1.12s1,0,1-.94a1.08,1.08,0,0,0-1.05-1.16Z" transform="translate(-17.58 -19.25)"/><path class="cls-9" d="M31.88,28.29s5.21,3.91,4,7.06a1.67,1.67,0,0,1-2.14.92,1.72,1.72,0,0,0,1.69-1.74S35.39,32.25,31.88,28.29Z" transform="translate(-17.58 -19.25)"/><path class="cls-10" d="M32.3,35.74l1.17-.1s-.22.66-.69.76A5.87,5.87,0,0,0,32.3,35.74Z" transform="translate(-17.58 -19.25)"/><path class="cls-10" d="M32.26,33.05l-.93,2.76a2.94,2.94,0,0,0,.9-.07S33,34.14,32.26,33.05Z" transform="translate(-17.58 -19.25)"/><path class="cls-10" d="M33,38.44l-1.69-2.59a3.57,3.57,0,0,0,.91-.09A3.1,3.1,0,0,1,33,38.44Z" transform="translate(-17.58 -19.25)"/><path class="cls-10" d="M30.72,34.45a4,4,0,0,0-.18.82s.45.39.57.47A6.45,6.45,0,0,1,30.2,35l-.62-.61A1.78,1.78,0,0,1,30.72,34.45Z" transform="translate(-17.58 -19.25)"/><path class="cls-10" d="M31.28,35.86l-.46,1.4a2.8,2.8,0,0,1-2.29,0Z" transform="translate(-17.58 -19.25)"/><path class="cls-9" d="M30.67,42.74s-.77-1-.54-1.57c0,0-.67-.51-.68-1,0,0,.34.66.77.78A7.59,7.59,0,0,0,32.09,42s-3.45-1.33-2.53-4.4c0,0-.83,0-1.09-.28a2.28,2.28,0,0,1,1.63-1.93,1.71,1.71,0,0,0-.54.12s-.4-.68,0-1.16a1.52,1.52,0,0,1,1.19.07s.74-1.36,1.54-1.41a2.08,2.08,0,0,1,.31,1.94s.84.34.92.68a1.32,1.32,0,0,1-.24.52s1,0,1-.82a1.07,1.07,0,0,0-1.06-1.2s.19-1.6-1.24-1.85a1.72,1.72,0,0,0-1.75,1.2s-1.19-.36-1.75.49a1.63,1.63,0,0,0,.17,1.54,2.24,2.24,0,0,0-1,1.91,2.76,2.76,0,0,0,.7,1.44,3,3,0,0,0,1.49,2.6S30.23,42.54,30.67,42.74Z" transform="translate(-17.58 -19.25)"/><path class="cls-13" d="M30.83,37.32a2.66,2.66,0,0,0,2,1.13,3.48,3.48,0,0,1-1.18-.28s-.65,1.68,2.07,2.52a16.38,16.38,0,0,0,2.84.57l-.15.89a14.46,14.46,0,0,1-3.71-1C31.54,40.51,30.15,39.68,30.83,37.32Z" transform="translate(-17.58 -19.25)"/><path class="cls-10" d="M41.28,25.73a3.18,3.18,0,0,0,.54.18c.3.07.57.14.56.18a.62.62,0,0,1-.65.39C41.3,26.4,41.24,26.09,41.28,25.73Z" transform="translate(-17.58 -19.25)"/><path class="cls-8" d="M59.68,38.4l-4-.31a4.13,4.13,0,0,1,.1.44ZM54.8,40.69s0,.08,0,.14l3,1.85-2.71-2.15A1.31,1.31,0,0,1,54.8,40.69ZM59,34.06l-2.71,1.27a2.92,2.92,0,0,1,.1.35Z" transform="translate(-17.58 -19.25)"/><path class="cls-8" d="M59.82,39.23h0a5.06,5.06,0,0,1-.51.33c.31,0,2.16.63,2.16.63,4.09.5,3.85-1.75,3.85-1.75C64.79,40,59.82,39.23,59.82,39.23Z" transform="translate(-17.58 -19.25)"/><path class="cls-14" d="M59.34,62.24a1.42,1.42,0,0,1-.16.5c.28.13.38.45.54.7.56-.36.49-1.76-.19-1.92A4.79,4.79,0,0,0,59.34,62.24Z" transform="translate(-17.58 -19.25)"/><path class="cls-14" d="M57.93,65.46a2.53,2.53,0,0,1-.15,1.14c.79.06,1.17-.53,1.29-1.17,0,0,0-.1-.29,0A3.08,3.08,0,0,1,57.93,65.46Z" transform="translate(-17.58 -19.25)"/><path class="cls-14" d="M55.58,67.36a4.58,4.58,0,0,1-.67.57,1.34,1.34,0,0,0,1.69-.39c0-.07,0-.16,0-.22s0-.11-.3,0A1,1,0,0,1,55.58,67.36Z" transform="translate(-17.58 -19.25)"/><path class="cls-14" d="M50.78,65.2a3,3,0,0,1-.51,0,1.25,1.25,0,0,0,2,.45c-.38-.06-.54-.34-.65-.67C51.54,64.92,51,65.17,50.78,65.2Z" transform="translate(-17.58 -19.25)"/><path class="cls-14" d="M32.63,65.69a.43.43,0,0,1-.4-.17,1.33,1.33,0,0,1-.12.59c-.07.13-.23.17-.3.29.57.32,1.65.13,1.56-.67A2.76,2.76,0,0,0,32.63,65.69Z" transform="translate(-17.58 -19.25)"/><path class="cls-14" d="M27.33,67.91a1.27,1.27,0,0,0,2,.43c-.21-.09-.73-.49-.76-.81A1.54,1.54,0,0,1,27.33,67.91Z" transform="translate(-17.58 -19.25)"/><path class="cls-14" d="M24.78,66.07a1.36,1.36,0,0,0,.74,1,2,2,0,0,0,1.08.29c-.06-.17-.23-.3-.31-.52s0-.52-.11-.78A2.26,2.26,0,0,1,24.78,66.07Z" transform="translate(-17.58 -19.25)"/><path class="cls-14" d="M24.07,62.57c-.47.47-.38,1.79.35,1.91,0-.6.38-.8.7-1.07A1.5,1.5,0,0,1,24.07,62.57Z" transform="translate(-17.58 -19.25)"/><path class="cls-14" d="M42.17,28.35c.25.38-.25.31-.25.31-1.82-.92-2.17.22-2.17.22s0,.28,0,.34a.23.23,0,0,0,.23,0c.67-.53,1.67,0,1.67,0,1.65.79,1.5-.42,1.5-.42C42.91,27,40.25,27,40.25,27a1.84,1.84,0,0,0-1.88-1.42c-.83,0-1.48.34-1.54,1.13A3.07,3.07,0,0,0,37.09,28a1.62,1.62,0,0,1,1.25-.5,1,1,0,0,1,.77.51C41.45,27.28,42.17,28.35,42.17,28.35Z" transform="translate(-17.58 -19.25)"/><path class="cls-7" d="M42.15,29.37a3.57,3.57,0,0,1-.46-.18A1.9,1.9,0,0,0,40.28,29a1.82,1.82,0,0,1,1.63,1,2,2,0,0,1-.14,1.83c.21-.28.48-.67.48-.67a1.57,1.57,0,0,0,0-1.82Zm1-.42c0,.23-.16.6-.79.48h0a1.08,1.08,0,0,1,.15.14,1.06,1.06,0,0,0,.53-.14.23.23,0,0,1-.12.25,4.11,4.11,0,0,1-.11,1.82c.06-.13.16-.06.16-.06a.25.25,0,0,0,.25.12A2.88,2.88,0,0,0,43.18,29Z" transform="translate(-17.58 -19.25)"/><path class="cls-15" d="M42.48,27.72c0,.06.27.55.35.73s.26,1.05-.95.5-1.72-.2-1.87.05,0,.18,0,.18c.67-.53,1.67,0,1.67,0,1.65.79,1.5-.42,1.5-.42a1.69,1.69,0,0,0-.65-1.08S42.52,27.67,42.48,27.72Zm-5.11,0a1.72,1.72,0,0,1,1-.27,1,1,0,0,1,.77.51c2.34-.69,3.06.38,3.06.38s.08.16.06.21.14-.07,0-.32a2.35,2.35,0,0,0-2.32-.73s-1.77-1.26-2.54.12C37.35,27.63,37.24,27.8,37.37,27.73Z" transform="translate(-17.58 -19.25)"/><path class="cls-14" d="M41.61,24.5c2.58.51,2.78.19,2.78.19a25.06,25.06,0,0,1,.69-2.49,19,19,0,0,1,1-2.12c-.53.29-1.22.42-1.59.86-.33-.41-1-.1-1.1.24,0-.43-.16-.63-.54-.64a.44.44,0,0,0-.63-.6c0-.34-.28-.49-.46-.69a1.09,1.09,0,0,0-.34.8.38.38,0,0,0-.61.44c-.46,0-.56.46-.58.86a.65.65,0,0,0-1.1-.25c-.2-.59-1.09-.5-1.48-.9a20.08,20.08,0,0,1,1.61,4.17A9.51,9.51,0,0,1,41.61,24.5Z" transform="translate(-17.58 -19.25)"/><path class="cls-15" d="M38.77,26a.44.44,0,0,1,.11.1.3.3,0,0,1,0,.26,1.09,1.09,0,0,0,0,.17s0,.18-.29,0c0,0,0,.15.36.16a1.12,1.12,0,0,1,.91.34s.12.13.14.13.06,0,.06,0A1.44,1.44,0,0,0,38.77,26Z" transform="translate(-17.58 -19.25)"/><path class="cls-15" d="M39.23,21.21s.12.1.06.68.11.82.22.84a.9.9,0,0,0,.44,0,.6.6,0,0,1,.08-.34,1.43,1.43,0,0,0,.26-.75,1.28,1.28,0,0,1-.25.81s-.19.38.28.42.54-.15.56-.22a.53.53,0,0,0-.19-.4,1,1,0,0,1-.25-.39,4.38,4.38,0,0,0,.36.48.33.33,0,0,1,0,.48s0,.11.19,0a1.11,1.11,0,0,0,.65-.76.49.49,0,0,0-.11-.29c-.12-.13-.44-.91.3-1.1,0,0,.67-.11.56.87a4.24,4.24,0,0,0-.1.56.68.68,0,0,0,.56.79,1.07,1.07,0,0,1,0-.52c.09-.18.34-.55.34-.55a.76.76,0,0,0-.08-.82.71.71,0,0,1,.16.71c-.15.38-.75.95-.2,1.19,0,0,.46.12.56-.26a.84.84,0,0,0-.08-.5,1,1,0,0,1-.05-.92.92.92,0,0,0,0,.74c.19.39.23.71.11.87,0,0,.39.1.54-.1a1.55,1.55,0,0,0,.27-.8,2.5,2.5,0,0,1,.34-1.09,2.3,2.3,0,0,0-.28,1c0,.62-.11,1.05-.37,1.1a1.52,1.52,0,0,1-.56,0,1.82,1.82,0,0,1-.85,0c-.37-.13-.61-.44-.61-1.13a.36.36,0,0,1-.16,0,.4.4,0,0,0,.26-.31c.06-.25,0-.76-.39-.78a.49.49,0,0,0-.45.57.86.86,0,0,0,.19.47.63.63,0,0,1-.1.74.89.89,0,0,1-.72.4c-.41,0-.71,0-.84-.15,0,0-.58.16-.69-.25a1.49,1.49,0,0,1,0-.47,2,2,0,0,0,0-.82S39.21,21.22,39.23,21.21Z" transform="translate(-17.58 -19.25)"/><path class="cls-15" d="M41.84,24.48s.64.07.91.12a6.5,6.5,0,0,0,.73.09c.19,0,.71,0,.71,0v0a3.68,3.68,0,0,1-1.14,0l-1.21-.2Z" transform="translate(-17.58 -19.25)"/><path class="cls-15" d="M39.73,24v0l1,.05.9.08c.11,0,1.07.1,1.34.11a7.21,7.21,0,0,0,1.11,0s0,0-.12,0H43l-.83-.05-1.49-.12Z" transform="translate(-17.58 -19.25)"/><path class="cls-15" d="M40.87,23.23a3.79,3.79,0,0,0-.62,0c-.46,0-.58,0-.59.27s.15.25.15.25h1c.16,0,.18-.15.18-.27A.21.21,0,0,0,40.87,23.23Zm-.29.46H39.8c-.1,0-.11-.19-.11-.31s.2-.14.26-.15h.69c.09,0,.13.09.13.27A.22.22,0,0,1,40.58,23.69Z" transform="translate(-17.58 -19.25)"/><path class="cls-15" d="M44.07,23.39a6,6,0,0,0-.72-.09c-.35,0-.42.15-.38.37s.67.26.94.27.39-.12.41-.23A.31.31,0,0,0,44.07,23.39Zm-.28.42a3.42,3.42,0,0,1-.74-.08s-.12-.1,0-.29c0,0,.07-.13.36-.11s.7.1.73.11S44.17,23.82,43.79,23.81Z" transform="translate(-17.58 -19.25)"/><path class="cls-15" d="M42.69,23.46c0-.15-.19-.21-.23-.21a5,5,0,0,0-.73-.06l-.21,0a.21.21,0,0,0-.2.22.34.34,0,0,0,.09.23,3.33,3.33,0,0,0,1,.11h0c.24,0,.27-.29.27-.29h0Zm-1.17-.23h.21c.25,0,.57,0,.69,0s.1.34-.19.4a4,4,0,0,1-.81,0h0a.33.33,0,0,1-.08-.2A.19.19,0,0,1,41.52,23.23Z" transform="translate(-17.58 -19.25)"/><path class="cls-5" d="M43.66,67.89a2.85,2.85,0,0,1-.3-1.51c0-.09-.1-.17-.18-.21a4.76,4.76,0,0,1-.26.78A6.3,6.3,0,0,1,42,71.89c-1.08-1-.91-4.54-.91-4.54l0,0c-.22,3.93.95,4.73.95,4.73v.71a6.77,6.77,0,0,0,1.29-3.42,5.43,5.43,0,0,0-.2-2.15l.27.4Z" transform="translate(-17.58 -19.25)"/></svg>